<svg height="1000" viewBox="0 0 1000 1000" width="1000" xmlns="http://www.w3.org/2000/svg"><defs><style>.a{fill:none;}</style></defs><title>2dfd</title><path d="M500,321.11108A178.88892,178.88892,0,1,0,678.88892,500,178.83964,178.83964,0,0,0,500,321.11108ZM186.94439,634.16669H97.49993V813.05561c0,49.19447,40.25,89.44446,89.44446,89.44446H365.83331V813.05561H186.94439Zm0-447.2223H365.83331V97.49993H186.94439c-49.19445,0-89.44446,40.25-89.44446,89.44446V365.83331h89.44446ZM813.05561,97.49993H634.16669v89.44446H813.05561V365.83331h89.44446V186.94439C902.50007,137.74994,862.25008,97.49993,813.05561,97.49993Zm0,715.55569H634.16669v89.44446H813.05561c49.19447,0,89.44446-40.25,89.44446-89.44446V634.16669H813.05561Z"/></svg>