<svg viewBox="0 0 24 24" xmlns="http://www.w3.org/2000/svg">
  <title>2dfd</title>
  <g data-name="capture 02 - fold" id="capture_02_-_fold">
    <g data-name="header copy 6" id="header_copy_6-3">
      <g>
        <rect fill="none" height="12" width="12"/>
        <path d="M12,7.707A4.293,4.293,0,1,0,16.293,12,4.292,4.292,0,0,0,12,7.707ZM4.487,15.22H2.34v4.293A2.153,2.153,0,0,0,4.487,21.66H8.78V19.513H4.487Zm0-10.733H8.78V2.34H4.487A2.153,2.153,0,0,0,2.34,4.487V8.78H4.487ZM19.513,2.34H15.22V4.487h4.293V8.78H21.66V4.487A2.153,2.153,0,0,0,19.513,2.34Zm0,17.173H15.22V21.66h4.293a2.153,2.153,0,0,0,2.147-2.147V15.22H19.513Z"/>
      </g>
    </g>
  </g>
</svg>