<svg height="24" viewBox="0 0 24 24" width="24" xmlns="http://www.w3.org/2000/svg">
  <title>3dfd</title>
  <g data-name="capture 02 - fold" id="capture_02_-_fold">
    <g data-name="header copy 6" id="header_copy_6-3">
      <g>
        <rect fill="none" height="24" width="24"/>
        <path d="M15.649,6.744h-.322c-.107-.107-.215-.107-.215-.215L14.9,6.315c0-.107-.107-.215-.107-.322h-.859a1.361,1.361,0,0,0,.107.644,1.482,1.482,0,0,0,.322.429.82.82,0,0,0,.537.215,1.361,1.361,0,0,0,.644.107,1.361,1.361,0,0,0,.644-.107c.215-.107.429-.107.537-.322.107-.107.215-.322.322-.429a1.361,1.361,0,0,0,.107-.644V5.564c0-.107-.107-.215-.107-.322-.107-.107-.107-.215-.215-.322s-.215-.107-.429-.215c.107-.107.215-.107.322-.215l.215-.215a.394.394,0,0,0,.107-.322V3.632a1.361,1.361,0,0,0-.107-.644,1.482,1.482,0,0,0-.322-.429,2.346,2.346,0,0,0-.537-.322c0,.107-.215.107-.429.107a1.361,1.361,0,0,0-.644.107c-.215.107-.322.215-.537.322a1.482,1.482,0,0,0-.322.429.968.968,0,0,0-.107.537H14.9a.394.394,0,0,1,.107-.322c0-.107.107-.107.107-.215.107-.107.107-.107.215-.107h.322a.82.82,0,0,1,.537.215.82.82,0,0,1,.215.537v.322a.375.375,0,0,1-.107.215c-.107.107-.107.107-.215.107H15.005v.644h.966c.107,0,.215.107.322.107,0,.107.107.215.107.322s.107.215.107.322a.82.82,0,0,1-.215.537A.928.928,0,0,1,15.649,6.744Zm5.367-3.757a4.544,4.544,0,0,0-.751-.537c-.215,0-.537-.107-.859-.107H17.9V7.388h1.4a3.134,3.134,0,0,0,.966-.215,4.667,4.667,0,0,0,.751-.429c.215-.107.322-.429.429-.751a3.134,3.134,0,0,0,.215-.966V4.7a3.134,3.134,0,0,0-.215-.966A1.73,1.73,0,0,0,21.016,2.988ZM20.8,5.027a1.827,1.827,0,0,1-.107.751c-.107.107-.107.322-.322.429-.107.107-.322.215-.429.322s-.322.107-.644.107h-.537V3.095h.644a1.378,1.378,0,0,1,1.073.429A2.289,2.289,0,0,1,20.8,4.812ZM12,7.71A4.293,4.293,0,1,0,16.293,12,4.306,4.306,0,0,0,12,7.71ZM4.487,15.224H2.34v4.293a2.153,2.153,0,0,0,2.147,2.147H8.78V19.517H4.487Zm0-10.733H8.78V2.344H4.487A2.153,2.153,0,0,0,2.34,4.49V8.784H4.487ZM19.513,19.517H15.22v2.147h4.293a2.153,2.153,0,0,0,2.147-2.147V15.224H19.513Z" transform="translate(3.6000000000000014 3.6000000000000014) scale(0.7)"/>
      </g>
    </g>
  </g>
</svg>