<svg height="1000" viewBox="0 0 1000 1000" width="1000" xmlns="http://www.w3.org/2000/svg"><defs><style>.a{fill:none;}</style></defs><title>3dfd</title><path d="M678.88892,500.15278c0,98.3889-80.5,178.88892-178.88892,178.88892s-178.88892-80.5-178.88892-178.88892S401.6111,321.26386,500,321.26386,678.88892,401.76388,678.88892,500.15278ZM186.94439,634.31947H97.49993V813.20839c0,49.19447,40.25,89.44446,89.44446,89.44446H365.83331V813.20839H186.94439Zm0-447.2223H365.83331V97.65271H186.94439c-49.19445,0-89.44446,40.25-89.44446,89.44446V365.98609h89.44446ZM813.05561,813.20839H634.16669v89.44446H813.05561c49.19447,0,89.44446-40.25,89.44446-89.44446V634.31947H813.05561ZM641.41367,223.853H662.149q24.90795.1916,24.90795,32.18873,0,13.412-6.34408,21.45916c-4.21519,5.36479-9.96318,8.08976-17.244,8.08976-6.21634,0-11.41082-2.63982-15.49828-7.91945-4.04488-5.27963-6.08861-11.75144-6.08861-19.50058H599.68754q0,27.97354,17.3717,45.21751,17.3717,17.1801,45.21751,17.20139,30.01727,0,48.36826-17.45685,18.39356-17.3717,18.39356-46.32453c0-11.92175-2.46951-22.26813-7.49367-30.99656s-12.64557-15.28539-22.9068-19.67089a52.31671,52.31671,0,0,0,20.2244-19.28769,51.62264,51.62264,0,0,0,7.664-27.37746q0-28.73994-16.9885-45.30266-16.9885-16.47757-46.92062-16.52014a65.24385,65.24385,0,0,0-31.252,7.57883,55.29056,55.29056,0,0,0-21.88493,21.11853,59.42912,59.42912,0,0,0-7.8343,30.48563H643.798c0-6.98274,1.87342-12.73073,5.62026-17.28654a17.64788,17.64788,0,0,1,14.39126-6.89759,17.95836,17.95836,0,0,1,14.94477,7.23821c3.74684,4.81128,5.57768,11.58113,5.57768,20.18183q0,13.60357-5.40737,21.71462c-3.6191,5.40737-9.32451,8.08976-17.07365,8.08976H641.41367Zm176.31422,93.75607q39.66112,0,62.206-24.35444,22.60875-24.397,22.56618-67.145V190.94043q-.3832-42.02418-22.992-66.16573t-60.58805-24.14155H761.56792V317.60906Zm3.57653-180.44425q20.43729.5748,28.91025,12.56042,8.49425,12.00691,8.51554,42.40738v37.68126c-.34062,18.90449-3.44879,32.18873-9.40967,39.8953s-16.2221,11.53855-30.86883,11.53855H805.33778V137.1648Z"/></svg>