<svg height="1000" viewBox="0 0 1000 1000" width="1000" xmlns="http://www.w3.org/2000/svg"><title>ac</title><g data-name="all icons" id="all_icons"><g data-name="Layer 437" id="Layer_437"><g data-name="all icons" id="all_icons-2"><g data-name="Layer 437" id="Layer_437-2"><path d="M491.411,605.484A126.049,126.049,0,0,0,617.577,479.553c0-.218,0-.435,0-.653L618,225.733a126.584,126.584,0,0,0-253.168,0V478.9A126.411,126.411,0,0,0,491.064,605.484ZM715.038,478.9c0,126.584-107.17,215.193-223.627,215.193S267.785,605.484,267.785,478.9H196.044c0,143.886,114.765,262.875,253.168,283.548v138.4H533.6v-138.4C672,742.194,786.764,623.206,786.764,478.9Z"/></g></g></g></g></svg>