<svg height="1000" viewBox="0 0 1000 1000" width="1000" xmlns="http://www.w3.org/2000/svg"><defs><style>.a{fill:none;}</style></defs><title>as</title><path d="M500,408.33334A133.33333,133.33333,0,1,1,366.66667,541.66667,133.33333,133.33333,0,0,1,500,408.33334Zm-121.70154-273.438-74.23794,81.13436h-128.598A81.37289,81.37289,0,0,0,94.3282,297.1641V783.97026a81.37288,81.37288,0,0,0,81.13436,81.13436H824.53744a81.37287,81.37287,0,0,0,81.13436-81.13436V297.1641a81.37288,81.37288,0,0,0-81.13436-81.13436h-128.598l-74.23794-81.13436ZM500,743.40308c-111.96543,0-202.8359-90.87047-202.8359-202.8359S388.03457,337.73128,500,337.73128s202.8359,90.87047,202.8359,202.8359S611.96543,743.40308,500,743.40308Z"/></svg>