<svg height="1000" viewBox="0 0 1000 1000" width="1000" xmlns="http://www.w3.org/2000/svg"><title>as</title><g data-name="all icons" id="all_icons"><g data-name="Layer 437" id="Layer_437"><path d="M500,408.333A133.334,133.334,0,1,1,366.667,541.667,133.334,133.334,0,0,1,500,408.333ZM378.3,134.9,304.061,216.03h-128.6a81.373,81.373,0,0,0-81.135,81.134V783.97a81.374,81.374,0,0,0,81.135,81.135H824.537a81.374,81.374,0,0,0,81.135-81.135V297.164a81.373,81.373,0,0,0-81.135-81.134h-128.6L621.7,134.9ZM500,743.4c-111.965,0-202.836-90.87-202.836-202.836S388.035,337.731,500,337.731,702.836,428.6,702.836,540.567,611.965,743.4,500,743.4Z"/></g></g></svg>