<svg data-name="all icons" id="all_icons" viewBox="0 0 24 24" xmlns="http://www.w3.org/2000/svg">
<title>as</title>
<g>
	<path d="M12,9.8c1.8,0,3.2,1.4,3.2,3.2s-1.4,3.2-3.2,3.2S8.8,14.8,8.8,13l0,0C8.8,11.2,10.2,9.8,12,9.8z M9.1,3.2L7.3,5.2H4.2   c-1.1,0-1.9,0.9-1.9,1.9v11.7c0,1.1,0.9,1.9,1.9,1.9h15.6c1.1,0,1.9-0.9,1.9-1.9V7.1c0-1.1-0.9-1.9-1.9-1.9h-3.1l-1.8-1.9H9.1z    M12,17.8c-2.7,0-4.9-2.2-4.9-4.9S9.3,8.1,12,8.1s4.9,2.2,4.9,4.9C16.9,15.7,14.7,17.8,12,17.8z"/>
	<rect fill="none" height="12" width="12"/>
</g>
</svg>