<svg height="1000" viewBox="0 0 1000 1000" width="1000" xmlns="http://www.w3.org/2000/svg"><defs><style>.cls-1{fill:none;}</style></defs><title>bd</title><g data-name="all icons" id="all_icons"><g data-name="Layer 437" id="Layer_437"><path d="M500,354.17A145.89,145.89,0,0,1,645.83,500a141.55,141.55,0,0,1-10.5,53.37l85.17,85.17A344.67,344.67,0,0,0,820.54,500c-50.46-128-175-218.75-320.83-218.75a339.65,339.65,0,0,0-116.08,20.42l63,63A141.55,141.55,0,0,1,500,354.17ZM208.33,274.54l66.5,66.5,13.42,13.42A344.28,344.28,0,0,0,179.17,500c50.46,128,175,218.75,320.83,218.75a343.47,343.47,0,0,0,127.75-24.5L640,706.5l85.46,85.17,37-37L245.38,237.5ZM369.63,435.83,414.83,481a82.28,82.28,0,0,0-2.33,19A87.38,87.38,0,0,0,500,587.5a82.28,82.28,0,0,0,19-2.33l45.21,45.21C544.62,640,523,645.83,500,645.83A145.89,145.89,0,0,1,354.17,500C354.17,477,360,455.37,369.63,435.83Zm125.71-22.75L587.21,505l.58-4.67a87.38,87.38,0,0,0-87.5-87.5Z"/></g></g></svg>