<svg height="1000" viewBox="0 0 1000 1000" width="1000" xmlns="http://www.w3.org/2000/svg"><title>bd</title><g data-name="all icons" id="all_icons"><g data-name="Layer 437" id="Layer_437"><g data-name="all icons" id="all_icons-2"><g data-name="Layer 437" id="Layer_437-2"><path d="M500.182,298.659A183.111,183.111,0,0,1,683.217,481.694a177.66,177.66,0,0,1-13.179,66.986l106.9,106.9A432.6,432.6,0,0,0,902.5,481.694C839.166,321.038,682.853,207.135,499.818,207.135a426.286,426.286,0,0,0-145.695,25.63L433.2,311.838A177.66,177.66,0,0,1,500.182,298.659ZM134.1,198.713l83.466,83.466,16.844,16.844A432.111,432.111,0,0,0,97.5,481.694C160.834,642.35,317.147,756.253,500.182,756.253A431.1,431.1,0,0,0,660.524,725.5L675.9,740.878l107.263,106.9,46.439-46.44-649-649.114Zm202.452,202.44,56.732,56.694a103.3,103.3,0,0,0-2.925,23.847A109.674,109.674,0,0,0,499.881,591.518h.3a103.3,103.3,0,0,0,23.847-2.925l56.745,56.744c-24.588,12.075-51.724,19.392-80.592,19.392A183.111,183.111,0,0,1,317.147,481.694C317.147,452.826,324.464,425.678,336.551,401.153ZM494.333,372.6,609.642,487.97l.728-5.862A109.673,109.673,0,0,0,500.847,372.285c-.1,0-.2,0-.3,0Z"/></g></g></g></g></svg>