<svg height="1000" viewBox="0 0 1000 1000" width="1000" xmlns="http://www.w3.org/2000/svg"><title>be</title><g data-name="all icons" id="all_icons"><g data-name="Layer 437" id="Layer_437"><path d="M174.773,247.045H102.5V825.227A72.486,72.486,0,0,0,174.773,897.5H752.955V825.227H174.773ZM825.227,102.5H319.318a72.486,72.486,0,0,0-72.273,72.273V680.682a72.486,72.486,0,0,0,72.273,72.273H825.227A72.486,72.486,0,0,0,897.5,680.682V174.773A72.486,72.486,0,0,0,825.227,102.5Zm0,578.182H319.318V174.773H825.227ZM736.481,425.114H644.368V286.946H506.2V425.114H414.088l161.2,161.2Z"/></g></g></svg>