<svg data-name="all icons" id="all_icons" viewBox="0 0 24 24" xmlns="http://www.w3.org/2000/svg">
  <title>be</title>
  <g data-name="Layer 437" id="Layer_437">
    <g>
      <rect fill="none" height="12" width="12"/>
      <path d="M4.195,5.929H2.46V19.805A1.74,1.74,0,0,0,4.195,21.54H18.071V19.805H4.195ZM19.805,2.46H7.664A1.74,1.74,0,0,0,5.929,4.195V16.336a1.74,1.74,0,0,0,1.735,1.735H19.805a1.74,1.74,0,0,0,1.735-1.735V4.195A1.74,1.74,0,0,0,19.805,2.46Zm0,13.876H7.664V4.195H19.805ZM17.676,10.2H15.465V6.887H12.149V10.2H9.938l3.869,3.869Z"/>
    </g>
  </g>
</svg>