<svg height="1000" viewBox="0 0 1000 1000" width="1000" xmlns="http://www.w3.org/2000/svg"><defs><style>.a{fill:none;}</style></defs><title>be</title><path d="M174.7727,247.04543H102.5V825.2273A72.4852,72.4852,0,0,0,174.7727,897.5H752.95457V825.2273H174.7727ZM825.2273,102.5H319.31816a72.48521,72.48521,0,0,0-72.27273,72.27273V680.68184a72.4852,72.4852,0,0,0,72.27273,72.27273H825.2273A72.48519,72.48519,0,0,0,897.5,680.68184V174.7727A72.4852,72.4852,0,0,0,825.2273,102.5Zm0,578.18187H319.31816V174.7727H825.2273ZM736.48064,425.11446H644.36833V286.946H506.19987V425.11446H414.08756L575.2841,586.311Z"/></svg>