<svg height="1000" viewBox="0 0 1000 1000" width="1000" xmlns="http://www.w3.org/2000/svg"><title>be</title><g data-name="all icons" id="all_icons"><g data-name="Layer 437" id="Layer_437"><path d="M272.34,322.93H221.75V727.66a50.74,50.74,0,0,0,50.59,50.59H677.07V727.66H272.34ZM727.66,221.75H373.52a50.74,50.74,0,0,0-50.59,50.59V626.48a50.74,50.74,0,0,0,50.59,50.59H727.66a50.74,50.74,0,0,0,50.59-50.59V272.34A50.74,50.74,0,0,0,727.66,221.75Zm0,404.73H373.52V272.34H727.66Zm-62.12-178.9H601.06V350.86H504.34v96.72H439.86L552.7,560.42Z"/></g></g></svg>