<svg height="1000" viewBox="0 0 1000 1000" width="1000" xmlns="http://www.w3.org/2000/svg"><title>c</title><g data-name="all icons" id="all_icons"><g data-name="Layer 437" id="Layer_437"><path d="M500,99.149C279.131,99.149,99.149,279.131,99.149,500S279.131,900.851,500,900.851,900.851,720.869,900.851,500,720.869,99.149,500,99.149Zm0,641.7c-64.084,0-124.5-25.122-170.114-70.737S259.149,564.085,259.149,500s25.122-124.5,70.737-170.114S435.916,259.149,500,259.149s124.5,25.121,170.114,70.737S740.851,435.915,740.851,500,715.73,624.5,670.114,670.114,564.085,740.851,500,740.851ZM620,500A120,120,0,1,1,500,380,119.839,119.839,0,0,1,620,500Z"/></g></g></svg>