<svg height="1000" viewBox="0 0 1000 1000" width="1000" xmlns="http://www.w3.org/2000/svg"><title>fd2d</title><g data-name="capture 02 - fold" id="capture_02_-_fold"><g data-name="header copy 6" id="header_copy_6"><path d="M500,374.78A125.22,125.22,0,1,0,625.22,500,125.19,125.19,0,0,0,500,374.78ZM280.86,593.92H218.25V719.14a62.8,62.8,0,0,0,62.61,62.61H406.08V719.14H280.86Zm0-313.06H406.08V218.25H280.86a62.8,62.8,0,0,0-62.61,62.61V406.08h62.61ZM719.14,719.14H593.92v62.61H719.14a62.8,62.8,0,0,0,62.61-62.61V593.92H719.14ZM660.42,372.38H573.2v-23l40.18-51.34q14.85-20.56,14.85-32.66,0-9.81-3.52-14.92a11.63,11.63,0,0,0-10.22-5.11q-6.61,0-10.73,6.83t-4.12,17.06h-29a58.33,58.33,0,0,1,5.75-25.83,45.1,45.1,0,0,1,16-18.52,40.83,40.83,0,0,1,22.84-6.68q20.26,0,31.21,11.37t10.94,32.66a56.52,56.52,0,0,1-2.75,17.48A82,82,0,0,1,646,297.61q-5.8,9.34-18.67,25l-16.14,22.64h49.19Zm22.11,0V220.44h40.68a52.1,52.1,0,0,1,30.1,9.13q13.35,9.13,20.86,25.77t7.59,37.31v7q0,20.87-7.33,37.41t-20.64,25.88a51.11,51.11,0,0,1-29.71,9.44ZM713,248.72V344.2h10.58q13.09,0,20.12-11.22t7-33.34v-6.57q0-22-7-33.18t-20.47-11.17Z"/></g></g></svg>