<svg height="1000" viewBox="0 0 1000 1000" width="1000" xmlns="http://www.w3.org/2000/svg"><title>fd3d</title><g data-name="capture 02 - fold" id="capture_02_-_fold"><g data-name="header copy 6" id="header_copy_6"><path d="M625.22,496.11c0,68.87-56.35,125.22-125.22,125.22S374.78,565,374.78,496.11,431.13,370.88,500,370.88,625.22,427.23,625.22,496.11ZM280.86,590H218.25V715.25a62.8,62.8,0,0,0,62.61,62.61H406.08V715.25H280.86Zm0-313.06H406.08V214.36H280.86A62.8,62.8,0,0,0,218.25,277V402.19h62.61ZM719.14,715.25H593.92v62.61H719.14a62.8,62.8,0,0,0,62.61-62.61V590H719.14ZM599,302.7H613.5q17.44.13,17.44,22.53,0,9.39-4.44,15a14.55,14.55,0,0,1-12.07,5.66,13.2,13.2,0,0,1-10.85-5.54,21.75,21.75,0,0,1-4.26-13.65H569.78q0,19.58,12.16,31.65t31.65,12q21,0,33.86-12.22t12.88-32.43c0-8.35-1.73-15.59-5.25-21.7a32.57,32.57,0,0,0-16-13.77,36.62,36.62,0,0,0,14.16-13.5,36.14,36.14,0,0,0,5.36-19.16q0-20.12-11.89-31.71t-32.84-11.56A45.67,45.67,0,0,0,592,219.66a38.7,38.7,0,0,0-15.32,14.78,41.6,41.6,0,0,0-5.48,21.34h29.51a18.4,18.4,0,0,1,3.93-12.1,12.35,12.35,0,0,1,10.07-4.83,12.57,12.57,0,0,1,10.46,5.07c2.62,3.37,3.9,8.11,3.9,14.13q0,9.52-3.79,15.2c-2.53,3.79-6.53,5.66-12,5.66H599Zm123.42,65.63q27.76,0,43.54-17t15.8-47V279.66q-.27-29.42-16.09-46.32t-42.41-16.9H683.1V368.33ZM724.91,242q14.31.4,20.24,8.79t6,29.69v26.38c-.24,13.23-2.41,22.53-6.59,27.93s-11.36,8.08-21.61,8.08h-9.18V242Z"/></g></g></svg>