<svg height="1000" viewBox="0 0 1000 1000" width="1000" xmlns="http://www.w3.org/2000/svg"><title>fr</title><g id="guides"><path d="M353.591,845.434H280.47c0-105-81.9-190.217-182.8-190.217V579.13C239.156,579.13,353.591,698.206,353.591,845.434ZM97.666,731.3v114.13H207.348C207.348,782.282,158.356,731.3,97.666,731.3Zm0-304.348v76.087c181.707,0,329.047,153.315,329.047,342.391h73.121C499.834,614.13,319.59,426.956,97.666,426.956ZM902,236.739V769.347c0,41.848-32.9,76.087-73.121,76.087H572.956V655.16H828.882V350.869H97.334V277.417h.332V236.739c0-41.848,32.9-76.087,73.121-76.087H828.882C869.1,160.652,902,194.891,902,236.739ZM684.957,769.347V728.612H611.5v40.735Zm143.925-40.735H758.41v40.735h70.472ZM244.24,236.739H170.787v40.678H244.24Zm146.906,0H317.693v40.678h73.453Zm146.905,0H464.6v40.678h73.453Zm146.906,0H611.5v40.678h73.453Zm143.925,0H758.41v40.678h70.472Z"/></g></svg>