<svg height="1000" viewBox="0 0 1000 1000" width="1000" xmlns="http://www.w3.org/2000/svg"><title>fr</title><g id="guides"><path d="M218.48,661.51V741.4h76.78C295.26,697.19,261,661.51,218.48,661.51Zm0-106.52v53.26c70.64,0,128,59.65,128,133.15h51.19C397.63,638.34,317.53,555,218.48,555ZM500,741.4H448.81c0-132.35-103.14-239.67-230.33-239.67V448.46C373.83,448.46,500,579.49,500,741.4ZM730.33,262.05H269.67c-28.15,0-51.19,24-51.19,53.26v28.47h-.23V395.2H730.33v213H551.19V741.4H730.33c28.15,0,51.19-24,51.19-53.26V315.31C781.52,286,758.48,262.05,730.33,262.05Zm-152.16,426V659.62h51.42v28.51H578.17Zm152.16,0H681v0h0V659.62h49.33ZM321.08,343.79H269.67V315.31h51.42Zm102.83,0H372.5V315.31h51.42Zm102.83,0H475.33V315.31h51.42Zm102.83,0H578.17V315.31h51.42Zm100.75,0H681V315.31h49.33Z"/></g></svg>