<svg data-name="all icons" id="all_icons" viewBox="0 0 24 24" xmlns="http://www.w3.org/2000/svg">
  <title>g</title>
  <g data-name="Layer 437" id="Layer_437">
    <g>
      <rect fill="none" height="12" width="12"/>
      <path d="M12,2.34A9.66,9.66,0,1,0,21.66,12,9.664,9.664,0,0,0,12,2.34ZM8.136,17.313A2.415,2.415,0,1,1,10.551,14.9,2.416,2.416,0,0,1,8.136,17.313ZM9.585,8.136A2.415,2.415,0,1,1,12,10.551,2.416,2.416,0,0,1,9.585,8.136Zm6.279,9.177A2.415,2.415,0,1,1,18.279,14.9,2.416,2.416,0,0,1,15.864,17.313Z"/>
    </g>
  </g>
</svg>