<svg height="1000" viewBox="0 0 1000 1000" width="1000" xmlns="http://www.w3.org/2000/svg"><title>g</title><g data-name="all icons" id="all_icons"><g data-name="Layer 437" id="Layer_437"><path d="M500,214.25c-155.53,0-281.75,126.22-281.75,281.75S344.47,777.75,500,777.75,781.75,651.53,781.75,496,655.53,214.25,500,214.25ZM387.3,651a70.44,70.44,0,1,1,70.44-70.44A70.46,70.46,0,0,1,387.3,651ZM429.56,383.3A70.44,70.44,0,1,1,500,453.74,70.46,70.46,0,0,1,429.56,383.3ZM612.7,651a70.44,70.44,0,1,1,70.44-70.44A70.46,70.46,0,0,1,612.7,651Z"/></g></g></svg>