<svg height="1000" viewBox="0 0 1000 1000" width="1000" xmlns="http://www.w3.org/2000/svg"><title>g</title><g data-name="all icons" id="all_icons"><g data-name="Layer 437" id="Layer_437"><path d="M500,97.5C277.82,97.5,97.5,277.82,97.5,500S277.82,902.5,500,902.5,902.5,722.18,902.5,500,722.18,97.5,500,97.5ZM339,721.375A100.625,100.625,0,1,1,439.625,620.75,100.662,100.662,0,0,1,339,721.375ZM399.375,339A100.625,100.625,0,1,1,500,439.625,100.662,100.662,0,0,1,399.375,339ZM661,721.375A100.625,100.625,0,1,1,761.625,620.75,100.662,100.662,0,0,1,661,721.375Z"/></g></g></svg>