<svg height="1000" viewBox="0 0 1000 1000" width="1000" xmlns="http://www.w3.org/2000/svg"><defs><style>.a{fill:none;}</style></defs><title>g</title><path d="M500,97.49992C277.82,97.49992,97.49992,277.82,97.49992,500S277.82,902.50008,500,902.50008,902.50008,722.18006,902.50008,500,722.18006,97.49992,500,97.49992ZM339,721.375A100.625,100.625,0,1,1,439.625,620.75,100.66175,100.66175,0,0,1,339,721.375ZM399.375,339A100.625,100.625,0,1,1,500,439.625,100.66172,100.66172,0,0,1,399.375,339ZM661,721.375A100.625,100.625,0,1,1,761.625,620.75,100.66175,100.66175,0,0,1,661,721.375Z"/></svg>