<svg height="1000" viewBox="0 0 1000 1000" width="1000" xmlns="http://www.w3.org/2000/svg"><title>gm</title><g data-name="all icons" id="all_icons"><g data-name="Layer 437" id="Layer_437"><path d="M500,351.28A149.33,149.33,0,1,0,649.33,500.61,149.38,149.38,0,0,0,500,351.28ZM451.84,483.73c-4.16,30.11-22.27,52.48-40.46,50s-29.55-29-25.39-59.06,22.27-52.48,40.46-50S456,453.62,451.84,483.73Zm-20.3-1.65c-1.83,13.26-9.81,23.11-17.81,22s-13-12.75-11.18-26,9.81-23.11,17.81-22S433.37,468.82,431.54,482.08Zm-148,112.7H221.75V718.45a62,62,0,0,0,61.83,61.83H407.25V718.45H283.58Zm0-309.17H407.25V223.78H283.58a62,62,0,0,0-61.83,61.83V409.28h61.83Zm432.83-61.83H592.75v61.83H716.42V409.28h61.83V285.61A62,62,0,0,0,716.42,223.78Zm0,494.67H592.75v61.83H716.42a62,62,0,0,0,61.83-61.83V594.78H716.42Z"/></g></g></svg>