<svg height="1000" viewBox="0 0 1000 1000" width="1000" xmlns="http://www.w3.org/2000/svg"><title>gm</title><g data-name="all icons" id="all_icons"><g data-name="Layer 437" id="Layer_437"><path d="M500,250c-138,0-250,112-250,250S362,750,500,750,750,638,750,500,638,250,500,250ZM450.48,487.072c-16.41,65.437-61.75,110.451-101.269,100.54s-58.252-70.992-41.842-136.43,61.751-110.45,101.27-100.54S466.891,421.635,450.48,487.072Zm-36.359-6.685c-9,35.885-33.863,60.57-55.535,55.135s-31.945-38.931-22.945-74.816,33.863-60.57,55.534-55.135S423.12,444.5,414.121,480.387ZM190.833,634.529H102.5V811.2a88.593,88.593,0,0,0,88.333,88.334H367.5V811.2H190.833Zm0-441.667H367.5V104.529H190.833A88.593,88.593,0,0,0,102.5,192.862V369.529h88.333Zm618.334-88.333H632.5v88.333H809.167V369.529H897.5V192.862A88.593,88.593,0,0,0,809.167,104.529Zm0,706.666H632.5v88.334H809.167A88.593,88.593,0,0,0,897.5,811.2V634.529H809.167Z"/></g></g></svg>