<svg height="2000" viewBox="0 0 1000 1000" width="1000" xmlns="http://www.w3.org/2000/svg"><title>gs</title><g data-name="capture 02 - fold" id="capture_02_-_fold"><g data-name="header copy 6" id="header_copy_6"><path d="M716.71,528.58a201.1,201.1,0,0,0,0-57.17l61.54-48.12a14.71,14.71,0,0,0,3.5-18.67L723.42,303.71c-3.5-6.42-11.37-8.75-17.79-6.42L633,326.46a213.09,213.09,0,0,0-49.29-28.58l-11.08-77.29a14.22,14.22,0,0,0-14.29-12.25H441.67a14.22,14.22,0,0,0-14.29,12.25l-11.08,77.29c-17.79,7.29-34.13,17.21-49.29,28.58l-72.63-29.17a14.23,14.23,0,0,0-17.79,6.42L218.25,404.62a14.38,14.38,0,0,0,3.5,18.67l61.54,48.12a201.1,201.1,0,0,0,0,57.17l-61.54,48.12a14.71,14.71,0,0,0-3.5,18.67l58.33,100.92c3.5,6.42,11.37,8.75,17.79,6.42L367,673.54a213.09,213.09,0,0,0,49.29,28.58l11.08,77.29a14.22,14.22,0,0,0,14.29,12.25H558.33a14.22,14.22,0,0,0,14.29-12.25l11.08-77.29c17.79-7.29,34.13-17.21,49.29-28.58l72.62,29.17a14.23,14.23,0,0,0,17.79-6.42l58.33-100.92a14.71,14.71,0,0,0-3.5-18.67ZM500,602.08A102.08,102.08,0,1,1,602.08,500,102.2,102.2,0,0,1,500,602.08Z"/></g></g></svg>