<svg height="1000" viewBox="0 0 1000 1000" width="1000" xmlns="http://www.w3.org/2000/svg"><title>gs</title><g data-name="capture 02 - fold" id="capture_02_-_fold"><g data-name="header copy 6" id="header_copy_6"><path d="M809.583,540.833A324.63,324.63,0,0,0,812.5,500a324.63,324.63,0,0,0-2.917-40.833l87.917-68.75c7.917-6.25,10-17.5,5-26.667L819.167,219.583c-5-9.166-16.25-12.5-25.417-9.166L690,252.083a304.457,304.457,0,0,0-70.417-40.833L603.75,100.833a20.318,20.318,0,0,0-20.417-17.5H416.667a20.318,20.318,0,0,0-20.417,17.5L380.417,211.25C355,221.667,331.667,235.833,310,252.083L206.25,210.417a20.326,20.326,0,0,0-25.417,9.166L97.5,363.75a20.542,20.542,0,0,0,5,26.667l87.917,68.75A330.365,330.365,0,0,0,187.5,500a330.365,330.365,0,0,0,2.917,40.833L102.5,609.583c-7.917,6.25-10,17.5-5,26.667l83.333,144.167c5,9.166,16.25,12.5,25.417,9.166L310,747.917a304.457,304.457,0,0,0,70.417,40.833L396.25,899.167a20.318,20.318,0,0,0,20.417,17.5H583.333a20.318,20.318,0,0,0,20.417-17.5L619.583,788.75C645,778.333,668.333,764.167,690,747.917l103.75,41.666a20.326,20.326,0,0,0,25.417-9.166L902.5,636.25c5-9.167,2.917-20.417-5-26.667ZM500,645.833c-80.417,0-145.833-65.416-145.833-145.833S419.583,354.167,500,354.167,645.833,419.583,645.833,500,580.417,645.833,500,645.833Z"/></g></g></svg>