<svg height="1000" viewBox="0 0 1000 1000" width="1000" xmlns="http://www.w3.org/2000/svg"><defs><style>.a{fill:none;}</style></defs><title>gs</title><path d="M809.58335,540.83331A324.7009,324.7009,0,0,0,812.5,500a324.71582,324.71582,0,0,0-2.91665-40.83331L897.5,390.4167c7.91669-6.25,10-17.5,5-26.66668L819.16674,219.58335c-5-9.16666-16.25-12.5-25.41669-9.16666l-103.75,41.66667A304.42033,304.42033,0,0,0,619.58337,211.25L603.75,100.83336a20.31759,20.31759,0,0,0-20.4167-17.5H416.66667a20.31752,20.31752,0,0,0-20.41666,17.5L380.41667,211.25C355,221.66667,331.66667,235.83335,310,252.08334L206.25,210.41667a20.325,20.325,0,0,0-25.41667,9.16666L97.5,363.75a20.542,20.542,0,0,0,5,26.66668l87.91667,68.75A330.43981,330.43981,0,0,0,187.5,500a330.43917,330.43917,0,0,0,2.91667,40.83331L102.5,609.5833c-7.91667,6.25-10,17.5-5,26.66668l83.33334,144.16667c5,9.16664,16.25,12.5,25.41667,9.16664L310,747.91662a304.42055,304.42055,0,0,0,70.41669,40.83331L396.25,899.16658a20.31753,20.31753,0,0,0,20.41666,17.5H583.33337a20.31753,20.31753,0,0,0,20.41666-17.5l15.83334-110.41665c25.41665-10.41667,48.75-24.58334,70.41669-40.83331l103.75,41.66667a20.325,20.325,0,0,0,25.41669-9.16664L902.50007,636.25c5-9.16668,2.91665-20.41666-5-26.66668ZM500,645.83333c-80.41668,0-145.83333-65.41665-145.83333-145.83333S419.58332,354.16667,500,354.16667,645.83333,419.58332,645.83333,500,580.41668,645.83333,500,645.83333Z"/></svg>