<svg height="1000" viewBox="0 0 1000 1000" width="1000" xmlns="http://www.w3.org/2000/svg"><title>hl</title><g data-name="capture 02 - fold" id="capture_02_-_fold"><rect height="1000" style="fill:none" width="1000"/><path d="M353.757,874.333H280.635c0-105-81.9-190.217-182.8-190.217V608.029C239.321,608.029,353.757,727.105,353.757,874.333ZM97.831,760.2V874.333H207.514C207.514,811.181,158.522,760.2,97.831,760.2Zm0-304.347v76.087c181.707,0,329.047,153.315,329.047,342.391H500C500,643.029,319.755,455.855,97.831,455.855Zm521.244,25.28H551.2V327.083H450.618V481.135H382.5V125.667h68.116V271.419H551.2V125.667h67.871ZM736,425.715H902.5v55.42H667.149V125.667H736Z"/></g></svg>