<?xml version="1.0" encoding="utf-8"?>
<!-- Generator: Adobe Illustrator 25.3.1, SVG Export Plug-In . SVG Version: 6.00 Build 0) -->
<svg version="1.1" id="Layer_1" xmlns="http://www.w3.org/2000/svg" xmlns:xlink="http://www.w3.org/1999/xlink" x="0px" y="0px" viewBox="0 0 1000 1000" style="enable-background:new 0 0 1000 1000;" height="1000" width="1000" xml:space="preserve">
	<path d="M311.2,895.8C175,830.8,77.5,698.3,62.5,541.7H0C20.8,798.3,235.8,1000,497.9,1000l27.5-1.2L366.7,840L311.2,895.8z
	 M497.9,0l-27.5,1.2L629.2,160l55.4-55.8c136.2,65,233.8,197.1,248.3,354.2h62.5C974.6,201.7,760,0,497.9,0z M541.7,709.6
	l166.7-95.8V422.5l-166.7,95.8V709.6z M500,445.8l166.7-95.4L500,252.5l-166.7,97.9L500,445.8z M291.7,613.8l166.7,95.8V518.3
	l-166.7-95.8V613.8z M759.6,307.1c20.8,13.3,32.1,31.2,32.1,55v263.3c0,23.8-11.2,41.7-32.1,55L531.2,812.9
	c-20.8,13.3-41.7,13.3-62.5,0L240.4,680.4c-20.8-13.3-32.1-31.2-32.1-55V362.1c0-23.8,11.2-41.7,32.1-55l228.3-132.5
	c10.4-5.4,20.8-7.9,31.2-7.9s20.8,2.5,31.2,7.9L759.6,307.1z" />
</svg>
