<svg data-name="all icons" height="24" id="all_icons" viewBox="0 0 24 24" width="24" xmlns="http://www.w3.org/2000/svg">
  <title>lh</title>
  <g data-name="Layer 437" id="Layer_437">
    <g>
      <rect fill="none" height="24" width="24"/>
      <path d="M17.625,2.625H6.375A1.881,1.881,0,0,0,4.5,4.5v15a1.881,1.881,0,0,0,1.875,1.875h11.25A1.881,1.881,0,0,0,19.5,19.5V4.5A1.881,1.881,0,0,0,17.625,2.625Zm.176,8.65H6.2V9.825H17.8Zm0,2.9H6.2v-1.45H17.8Zm0,2.9H6.2v-1.45H17.8Zm0-8.7H6.2V6.924H17.8Z" transform="translate(3.6000000000000014 3.6000000000000014) scale(0.7)"/>
    </g>
  </g>
</svg>