<svg viewBox="0 0 24 24" xmlns="http://www.w3.org/2000/svg">
  <title>mgc</title>
  <g data-name="capture - phase 1 copy 4" id="capture_-_phase_1_copy_4">
    <g data-name="right-tab copy 10" id="right-tab_copy_10">
      <g data-name="main menu copy 11" id="main_menu_copy_11">
        <g>
          <rect fill="none" height="12" width="12"/>
          <path d="M16.83,2.34l4.83,4.83V2.34Zm4.83,14.49-4.83,4.83h4.83ZM7.17,21.66,2.34,16.83v4.83ZM2.34,7.17,7.17,2.34H2.34Zm9.822-1.646A10.212,10.212,0,0,0,2.663,12a10.2,10.2,0,0,0,19,0A10.212,10.212,0,0,0,12.162,5.524Zm0,10.6a4.317,4.317,0,1,1,4.317-4.317A4.319,4.319,0,0,1,12.162,16.124Zm0-6.908a2.59,2.59,0,1,0,2.59,2.59A2.587,2.587,0,0,0,12.162,9.216Z"/>
        </g>
      </g>
    </g>
  </g>
</svg>