<svg height="1000" viewBox="0 0 1000 1000" width="1000" xmlns="http://www.w3.org/2000/svg"><title>mgc</title><g data-name="capture - phase 1 copy 4" id="capture_-_phase_1_copy_4"><g data-name="right-tab copy 10" id="right-tab_copy_10"><g data-name="main menu copy 11" id="main_menu_copy_11"><path d="M701.25,97.5,902.5,298.75V97.5ZM902.5,701.25,701.25,902.5H902.5ZM298.75,902.5,97.5,701.25V902.5ZM97.5,298.75,298.75,97.5H97.5Zm409.229-68.594c-179.895,0-333.526,111.9-395.77,269.844C173.2,657.948,326.834,769.844,506.729,769.844S840.256,657.948,902.5,500C840.256,342.052,686.625,230.156,506.729,230.156Zm0,441.69c-99.3,0-179.895-80.594-179.895-179.9s80.593-179.9,179.9-179.9,179.9,80.594,179.9,179.9S606.032,671.846,506.729,671.846Zm0-287.833A107.937,107.937,0,1,0,614.667,491.95,107.793,107.793,0,0,0,506.729,384.013Z"/></g></g></g></svg>