<svg height="1000" viewBox="0 0 1000 1000" width="1000" xmlns="http://www.w3.org/2000/svg"><title>mgc</title><g data-name="capture - phase 1 copy 4" id="capture_-_phase_1_copy_4"><g data-name="right-tab copy 10" id="right-tab_copy_10"><g data-name="main menu copy 11" id="main_menu_copy_11"><path d="M640.88,218.25,781.75,359.12V218.25ZM781.75,640.88,640.88,781.75H781.75ZM359.12,781.75,218.25,640.88V781.75ZM218.25,359.12,359.12,218.25H218.25Zm286.46-48c-125.93,0-233.47,78.33-277,188.89,43.57,110.56,151.11,188.89,277,188.89s233.47-78.33,277-188.89C738.18,389.44,630.64,311.11,504.71,311.11Zm0,309.18A125.93,125.93,0,1,1,630.64,494.37,126,126,0,0,1,504.71,620.29Zm0-201.48a75.56,75.56,0,1,0,75.56,75.56A75.46,75.46,0,0,0,504.71,418.81Z"/></g></g></g></svg>