<svg height="1000" viewBox="0 0 1000 1000" width="1000" xmlns="http://www.w3.org/2000/svg"><defs><style>.a{fill:none;}</style></defs><title>mgc</title><path d="M701.25,97.49992l201.25,201.25v-201.25ZM902.50007,701.25l-201.25,201.25h201.25ZM298.75,902.50007l-201.25-201.25v201.25ZM97.49993,298.75l201.25-201.25h-201.25Zm409.22942-68.59364C326.83356,230.15632,173.20256,342.0515,110.95862,500c62.24394,157.94848,215.87494,269.84368,395.77073,269.84368S840.25615,657.94847,902.50007,500C840.25615,342.0515,686.62513,230.15632,506.72934,230.15632Zm0,441.68947c-99.30248,0-179.89579-80.5933-179.89579-179.89579s80.5933-179.89579,179.89579-179.89579S686.62513,392.64752,686.62513,491.95,606.03183,671.84579,506.72934,671.84579Zm0-287.83326A107.93747,107.93747,0,1,0,614.66682,491.95,107.7929,107.7929,0,0,0,506.72934,384.01253Z"/></svg>