<svg height="1000" viewBox="0 0 1000 1000" width="1000" xmlns="http://www.w3.org/2000/svg"><title>opd</title><g data-name="all icons" id="all_icons"><g data-name="Layer 437" id="Layer_437"><path d="M500,97.5C277.82,97.5,97.5,277.82,97.5,500S277.82,902.5,500,902.5,902.5,722.18,902.5,500,722.18,97.5,500,97.5ZM404.424,483.959c-20.779,100.567-86.858,171.919-147.592,159.37s-93.124-104.247-72.345-204.813S271.345,266.6,332.079,279.146,425.2,383.393,404.424,483.959Zm-53.017-7.8c-11.745,56.842-49.094,97.172-83.422,90.079s-52.635-58.922-40.891-115.764,49.094-97.171,83.422-90.079S363.152,419.315,351.407,476.156Z"/></g></g></svg>