<svg height="1000" viewBox="0 0 1000 1000" width="1000" xmlns="http://www.w3.org/2000/svg"><title>opd</title><g data-name="all icons" id="all_icons"><g data-name="Layer 437" id="Layer_437"><path d="M500,218.25c-155.53,0-281.75,126.22-281.75,281.75S344.47,781.75,500,781.75,781.75,655.53,781.75,500,655.53,218.25,500,218.25Zm-90.87,249.9c-7.85,56.8-42,99-76.33,94.27S277.05,507.79,284.9,451s42-99,76.33-94.27S417,411.35,409.13,468.15ZM370.83,465c-3.46,25-18.51,43.6-33.61,41.51s-24.55-24.06-21.09-49.07,18.51-43.6,33.61-41.51S374.29,440,370.83,465Z"/></g></g></svg>