<svg height="1000" viewBox="0 0 1000 1000" width="1000" xmlns="http://www.w3.org/2000/svg"><defs><style>.a{fill:none;}</style></defs><title>opd</title><path d="M500,97.49993C277.82,97.49993,97.49993,277.82,97.49993,500S277.82,902.50007,500,902.50007,902.50007,722.18006,902.50007,500,722.18006,97.49993,500,97.49993ZM370.19256,454.502c-11.21566,81.14988-60.03668,141.444-109.0448,134.67058s-79.645-78.04926-68.42929-159.19914,60.03668-141.444,109.0448-134.67058S381.40822,373.35209,370.19256,454.502Zm-54.71829-4.447c-4.93868,35.73339-26.43644,62.28317-48.01659,59.30059s-35.07071-34.36807-30.132-70.10145,26.43644-62.28317,48.01659-59.30059S320.413,414.32158,315.47427,450.055Z"/></svg>