<svg height="1000" viewBox="0 0 1000 1000" width="1000" xmlns="http://www.w3.org/2000/svg"><title>pd2d</title><g data-name="capture 02 - fold" id="capture_02_-_fold"><rect height="1000" style="fill:none" width="1000"/><path d="M689.33,378.816H534.158V337.9l71.484-91.339q26.419-36.577,26.419-58.1,0-17.452-6.262-26.544a20.692,20.692,0,0,0-18.183-9.091q-11.758,0-19.089,12.151T581.2,195.32H529.6a103.762,103.762,0,0,1,10.23-45.954A80.237,80.237,0,0,1,568.3,116.418a72.64,72.64,0,0,1,40.635-11.885q36.045,0,55.526,20.229t19.463,58.1a100.536,100.536,0,0,1-4.893,31.1,145.885,145.885,0,0,1-15.353,31.828q-10.318,16.617-33.216,44.478L601.745,330.55h87.514ZM245.9,455.207c-8.622,62.351,14.929,117.185,52.607,122.386s75.213-41.151,83.835-103.52-14.929-117.184-52.606-122.386S254.465,392.856,245.9,455.207ZM505.112,813.162c-177.975,0-322.766-144.791-322.766-322.766,0-129.252,76.389-240.989,186.369-292.487v-93.38C209.852,160.688,95.936,312.348,95.936,490.352c0,225.872,183.3,409.177,409.176,409.177,194.517,0,357.461-135.962,398.952-317.974H814.735C775.234,715.294,651.413,813.162,505.112,813.162ZM727.525,378.816V108.5H799.9a92.692,92.692,0,0,1,53.551,16.243q23.751,16.244,37.112,45.847t13.5,66.378v12.454q0,37.13-13.041,66.556t-36.809,46.007a90.927,90.927,0,0,1-52.857,16.8Zm47.048-220V328.682h20.365q25.149,0,38.655-19.962t13.448-59.315V237.716q0-39.14-13.448-59.03t-39.347-19.873Z"/></g></svg>