<svg height="1000" viewBox="0 0 1000 1000" width="1000" xmlns="http://www.w3.org/2000/svg"><title>pd3d</title><g data-name="capture 02 - fold" id="capture_02_-_fold"><g data-name="header copy 6" id="header_copy_6"><path d="M592.07,299.78h13.65q16.22,0,16.22-19.31,0-7.51-3.86-12.26t-10.9-4.75a14,14,0,0,0-10,4.07,13.45,13.45,0,0,0-4.25,10.12H564a41.57,41.57,0,0,1,5.49-21.39,38.52,38.52,0,0,1,15.24-14.66,44.3,44.3,0,0,1,21.42-5.27q20.86,0,32.79,11.58t11.93,31.83a37,37,0,0,1-4.94,18.52,37.61,37.61,0,0,1-14.38,14.14,34.53,34.53,0,0,1,15.62,13.31q5.67,8.92,5.67,22.07,0,20.35-12.88,32.56t-33.82,12.21a47.16,47.16,0,0,1-22.79-5.69,38.23,38.23,0,0,1-15.92-15.76A47.64,47.64,0,0,1,562,348.2h29.1a17.42,17.42,0,0,0,4.64,12.1,14.81,14.81,0,0,0,11.42,5.11q7.64,0,12.19-5.17t4.55-13.2q0-11.48-4.72-16.28t-13-4.8H592.07ZM675,390.46V238.52h40.68a52.1,52.1,0,0,1,30.1,9.13q13.35,9.13,20.86,25.77t7.59,37.31v7q0,20.87-7.33,37.41T746.21,381a51.11,51.11,0,0,1-29.71,9.44ZM705.4,266.8v95.48H716q13.09,0,20.12-11.22t7-33.34v-6.57q0-22-7-33.18T715.64,266.8ZM781.75,502v0ZM305.19,458c-4.84,35,8.38,65.78,29.53,68.7s42.22-23.1,47.06-58.11-8.38-65.78-29.53-68.7S310,423,305.19,458ZM500,724.28c-122.55,0-222.25-99.7-222.25-222.25,0-89,52.6-165.94,128.33-201.4v-64.3C296.69,275,218.25,379.43,218.25,502c0,155.53,126.22,281.75,281.75,281.75,133.94,0,246.14-93.62,274.71-218.95H713.2C686,656.89,600.74,724.28,500,724.28Z"/></g></g></svg>