<svg height="1000" viewBox="0 0 1000 1000" width="1000" xmlns="http://www.w3.org/2000/svg"><title>pd3d</title><g data-name="capture 02 - fold" id="capture_02_-_fold"><rect height="1000" style="fill:none" width="1000"/><path d="M245.9,455.207c-8.622,62.351,14.929,117.185,52.607,122.386s75.213-41.151,83.835-103.52-14.929-117.184-52.606-122.386S254.465,392.856,245.9,455.207ZM505.112,813.162c-177.975,0-322.766-144.791-322.766-322.766,0-129.252,76.389-240.989,186.369-292.487v-93.38C209.852,160.688,95.936,312.348,95.936,490.352c0,225.872,183.3,409.177,409.176,409.177,194.517,0,357.461-135.962,398.952-317.974H814.735C775.234,715.294,651.413,813.162,505.112,813.162ZM579.984,217.49h24.285q28.857,0,28.857-34.354,0-13.36-6.868-21.812t-19.392-8.451a24.909,24.909,0,0,0-17.791,7.241,23.932,23.932,0,0,0-7.561,18H530.045a73.954,73.954,0,0,1,9.767-38.055,68.539,68.539,0,0,1,27.114-26.082,78.817,78.817,0,0,1,38.108-9.375q37.111,0,58.336,20.6T684.6,181.837a65.831,65.831,0,0,1-8.789,32.949,66.906,66.906,0,0,1-25.583,25.156,61.432,61.432,0,0,1,27.789,23.68q10.088,15.87,10.088,39.265,0,36.2-22.915,57.927t-60.169,21.723a83.907,83.907,0,0,1-40.546-10.123,68.019,68.019,0,0,1-28.323-28.039,84.749,84.749,0,0,1-9.66-40.741h51.771a31,31,0,0,0,8.255,21.527,26.348,26.348,0,0,0,20.318,9.091q13.592,0,21.687-9.2t8.1-23.484q0-20.424-8.4-28.963t-23.128-8.54h-25.1ZM727.525,378.819V108.5H799.9a92.692,92.692,0,0,1,53.551,16.243q23.751,16.243,37.112,45.847t13.5,66.378v12.454q0,37.129-13.041,66.556t-36.809,46.007a90.927,90.927,0,0,1-52.857,16.8Zm47.048-220V328.684h20.365q25.149,0,38.655-19.962t13.448-59.315V237.718q0-39.139-13.448-59.03t-39.347-19.872Z"/></g></svg>