<svg height="1000" viewBox="0 0 1000 1000" width="1000" xmlns="http://www.w3.org/2000/svg"><defs><style>.a{fill:none;}</style></defs><title>pm</title><path d="M241.1899,130.27129a36.97287,36.97287,0,1,0-73.94574,0V278.16277H93.29842V500H315.13564V278.16277H241.1899Zm147.89148,517.6202c0,48.0647,31.05722,88.73488,73.94574,104.26349V906.70158h73.94574V752.155a110.57658,110.57658,0,0,0,73.94574-104.26349V573.94574H389.08139Zm-295.783,0c0,48.0647,31.05721,88.73488,73.94574,104.26349V906.70158H241.1899V752.155c42.88852-15.52861,73.94574-56.19878,73.94574-104.26349V573.94574H93.29842ZM832.75584,278.16277V130.27129a36.97287,36.97287,0,1,0-73.94574,0V278.16277H684.86436V500H906.70158V278.16277Zm-295.783-147.89148a36.97287,36.97287,0,0,0-73.94574,0V278.16277H389.08139V500H610.91861V278.16277H536.97287Zm147.89148,517.6202c0,48.0647,31.05722,88.73488,73.94574,104.26349V906.70158h73.94574V752.155a110.57658,110.57658,0,0,0,73.94574-104.26349V573.94574H684.86436Z"/></svg>