<svg data-name="all icons" id="all_icons" viewBox="0 0 24 24" xmlns="http://www.w3.org/2000/svg">
  <title>pm</title>
  <g data-name="Layer 437" id="Layer_437">
    <g>
      <rect fill="none" height="12" width="12"/>
      <path d="M5.789,3.127a.887.887,0,1,0-1.775,0V6.676H2.239V12H7.563V6.676H5.789ZM9.338,15.549a2.671,2.671,0,0,0,1.775,2.5v3.709h1.775V18.052a2.654,2.654,0,0,0,1.775-2.5V13.775H9.338Zm-7.1,0a2.671,2.671,0,0,0,1.775,2.5v3.709H5.789V18.052a2.671,2.671,0,0,0,1.775-2.5V13.775H2.239ZM19.986,6.676V3.127a.887.887,0,1,0-1.775,0V6.676H16.437V12h5.324V6.676Zm-7.1-3.549a.887.887,0,0,0-1.775,0V6.676H9.338V12h5.324V6.676H12.887Zm3.549,12.423a2.671,2.671,0,0,0,1.775,2.5v3.709h1.775V18.052a2.654,2.654,0,0,0,1.775-2.5V13.775H16.437Z"/>
    </g>
  </g>
</svg>