<svg height="1000" viewBox="0 0 1000 1000" width="1000" xmlns="http://www.w3.org/2000/svg"><title>pm</title><g data-name="all icons" id="all_icons"><g data-name="Layer 437" id="Layer_437"><path d="M318.83,241.19a25.88,25.88,0,1,0-51.76,0V344.71H215.31V500H370.59V344.71H318.83ZM422.36,603.52c0,33.65,21.74,62.11,51.76,73V784.69h51.76V676.51a77.4,77.4,0,0,0,51.76-73V551.76H422.36Zm-207,0c0,33.65,21.74,62.11,51.76,73V784.69h51.76V676.51c30-10.87,51.76-39.34,51.76-73V551.76H215.31ZM732.93,344.71V241.19a25.88,25.88,0,1,0-51.76,0V344.71H629.41V500H784.69V344.71Zm-207-103.52a25.88,25.88,0,1,0-51.76,0V344.71H422.36V500H577.64V344.71H525.88ZM629.41,603.52c0,33.65,21.74,62.11,51.76,73V784.69h51.76V676.51a77.4,77.4,0,0,0,51.76-73V551.76H629.41Z"/></g></g></svg>