<svg height="1000" viewBox="0 0 1000 1000" width="1000" xmlns="http://www.w3.org/2000/svg"><title>pm</title><g data-name="all icons" id="all_icons"><g data-name="Layer 437" id="Layer_437"><path d="M241.19,130.271a36.973,36.973,0,1,0-73.946,0V278.163H93.3V500H315.136V278.163H241.19Zm147.891,517.62c0,48.065,31.058,88.735,73.946,104.264V906.7h73.946V752.155a110.578,110.578,0,0,0,73.946-104.264V573.946H389.081Zm-295.783,0c0,48.065,31.058,88.735,73.946,104.264V906.7H241.19V752.155c42.888-15.529,73.946-56.2,73.946-104.264V573.946H93.3ZM832.756,278.163V130.271a36.973,36.973,0,1,0-73.946,0V278.163H684.864V500H906.7V278.163ZM536.973,130.271a36.973,36.973,0,1,0-73.946,0V278.163H389.081V500H610.919V278.163H536.973Zm147.891,517.62c0,48.065,31.058,88.735,73.946,104.264V906.7h73.946V752.155A110.578,110.578,0,0,0,906.7,647.891V573.946H684.864Z"/></g></g></svg>