<svg height="1000" viewBox="0 0 1000 1000" width="1000" xmlns="http://www.w3.org/2000/svg"><title>rm</title><g id="guides"><path d="M829.047,157.609H170.953c-40.217,0-73.122,34.239-73.122,76.087v114.13h73.122V233.7H829.047V766.3H573.122v76.087H829.047c40.217,0,73.122-34.239,73.122-76.087V233.7C902.169,191.848,869.264,157.609,829.047,157.609ZM97.831,728.261v114.13H207.514C207.514,779.239,158.522,728.261,97.831,728.261Zm0-152.174v76.087c100.908,0,182.8,85.217,182.8,190.217h73.122C353.757,695.163,239.321,576.087,97.831,576.087Zm0-152.174V500c181.707,0,329.047,153.315,329.047,342.391H500C500,611.087,319.755,423.913,97.831,423.913Z"/></g></svg>