<svg height="1000" viewBox="0 0 1000 1000" width="1000" xmlns="http://www.w3.org/2000/svg"><defs><style>.a{fill:none;}</style></defs><title>rm</title><path d="M829.04725,157.6087H170.95275c-40.21689,0-73.12161,34.23913-73.12161,76.087V347.82609h73.12161V233.69565H829.04725v532.6087H573.12161v76.087H829.04725c40.2169,0,73.12161-34.23912,73.12161-76.087V233.69565C902.16886,191.84783,869.26415,157.6087,829.04725,157.6087ZM97.83114,728.26087V842.3913H207.51356C207.51356,779.23914,158.52207,728.26087,97.83114,728.26087Zm0-152.17391v76.087c100.90782,0,182.804,85.21738,182.804,190.21739h73.12161C353.75678,695.16308,239.32146,576.087,97.83114,576.087Zm0-152.17391V500c181.70719,0,329.04725,153.31524,329.04725,342.3913H500C500,611.087,319.75524,423.913,97.83114,423.913Z"/></svg>