<svg height="24" viewBox="0 0 23.931 23.933" width="24" xmlns="http://www.w3.org/2000/svg">
  <title>rm</title>
  <g id="guides">
    <g>
      <rect fill="none" height="24" width="24"/>
      <path d="M19.841,3.772H4.091a1.792,1.792,0,0,0-1.75,1.821V8.324h1.75V5.593h15.75V18.34H13.716v1.821h6.125a1.792,1.792,0,0,0,1.75-1.821V5.593A1.792,1.792,0,0,0,19.841,3.772ZM2.341,17.429v2.731H4.966A2.676,2.676,0,0,0,2.341,17.429Zm0-3.642v1.821a4.468,4.468,0,0,1,4.375,4.552h1.75A6.248,6.248,0,0,0,2.341,13.787Zm0-3.642v1.821a8.04,8.04,0,0,1,7.875,8.194h1.75A9.826,9.826,0,0,0,2.341,10.145Z" transform="translate(3.6000000000000014 3.6000000000000014) scale(0.7)"/>
    </g>
  </g>
</svg>