<svg height="1000" viewBox="0 0 1000 1000" width="1000" xmlns="http://www.w3.org/2000/svg"><title>rm</title><g id="guides"><path d="M730.33,260.33H269.67c-28.15,0-51.19,24-51.19,53.26v79.89h51.19V313.59H730.33V686.41H551.19v53.26H730.33c28.15,0,51.19-24,51.19-53.26V313.59C781.52,284.29,758.48,260.33,730.33,260.33ZM218.48,659.78v79.89h76.78C295.26,695.47,261,659.78,218.48,659.78Zm0-106.52v53.26c70.64,0,128,59.65,128,133.15h51.19C397.63,636.61,317.53,553.26,218.48,553.26Zm0-106.52V500c127.2,0,230.33,107.32,230.33,239.67H500C500,577.76,373.83,446.74,218.48,446.74Z"/></g></svg>