<svg height="1000" viewBox="0 0 1000 1000" width="1000" xmlns="http://www.w3.org/2000/svg"><title>rr</title><g id="guides"><path d="M353.757,768.333H280.635c0-105-81.9-190.217-182.8-190.217V502.029C239.321,502.029,353.757,621.105,353.757,768.333ZM97.831,654.2v114.13H207.514C207.514,705.181,158.522,654.2,97.831,654.2Zm0-304.348v76.087c181.707,0,329.047,153.315,329.047,342.391H500C500,537.029,319.755,349.855,97.831,349.855ZM573.122,768.333H678.889a44.854,44.854,0,0,0,44.722-44.722V567.083L902.5,745.972V254.028L723.611,432.917V276.389a44.854,44.854,0,0,0-44.722-44.722H142.222A44.854,44.854,0,0,0,97.5,276.389v25.275l70,0H653.611V698.333h-80.49M97.5,301.664h70M573.121,698.333v70"/><rect height="1000" style="fill:none" width="1000"/></g></svg>