<svg height="1000" viewBox="0 0 1000 1000" width="1000" xmlns="http://www.w3.org/2000/svg"><defs><style>.cls-1{fill:none;stroke:#000;stroke-miterlimit:10;}</style></defs><title>rr</title><g id="guides"><path d="M397.63,687.83H346.44c0-73.5-57.33-133.15-128-133.15V501.42C317.53,501.42,397.63,584.77,397.63,687.83ZM218.48,607.94v79.89h76.78C295.26,643.63,261,607.94,218.48,607.94Zm0-213v53.26c127.2,0,230.33,107.32,230.33,239.67H500C500,525.92,373.83,394.9,218.48,394.9Zm332.7,243.93h56.34V361.17H218.25V343.47a31.4,31.4,0,0,1,31.31-31.31H625.22a31.4,31.4,0,0,1,31.31,31.31V453L781.75,327.82V672.18L656.53,547V656.53a31.4,31.4,0,0,1-31.31,31.31h-74"/><line class="cls-1" x1="97.5" x2="167.5" y1="301.66" y2="301.66"/></g></svg>