<svg data-name="all icons" height="24" id="all_icons" viewBox="0 0 24 24" width="24" xmlns="http://www.w3.org/2000/svg">
  <title>s</title>
  <g data-name="Layer 437" id="Layer_437">
    <g>
      <rect fill="none" height="24" width="24"/>
      <path d="M21.66,7.17V18.762a1.932,1.932,0,0,1-1.932,1.932H14.405V18.888l1.806-3.613V11.662h-.6V9.846a1.207,1.207,0,0,0-1.208-1.208H9.575A1.208,1.208,0,0,0,8.387,9.846v1.806H7.779v3.613l1.806,3.613v1.816H4.272A1.932,1.932,0,0,1,2.34,18.762V7.17A1.932,1.932,0,0,1,4.272,5.238H7.334L9.1,3.306h5.8l1.768,1.932h3.062A1.932,1.932,0,0,1,21.66,7.17Z" transform="translate(3.6000000000000014 3.6000000000000014) scale(0.7)"/>
    </g>
  </g>
</svg>