<svg height="1000" viewBox="0 0 1000 1000" width="1000" xmlns="http://www.w3.org/2000/svg"><defs><style>.a{fill:none;}</style></defs><title>s</title><path d="M902.50007,298.75V781.75005a80.5,80.5,0,0,1-80.5,80.5H600.22251V786.98252l75.26755-150.535v-150.535h-24.955v-75.67A50.31249,50.31249,0,0,0,600.22255,359.93h-201.25A50.3125,50.3125,0,0,0,349.465,410.2425V485.51H324.10747V636.045L399.375,786.58009v75.67h-221.375a80.5,80.5,0,0,1-80.5-80.5V298.75a80.5,80.5,0,0,1,80.5-80.5H305.59247l73.65751-80.5h241.5l73.65751,80.5H822.00006A80.5,80.5,0,0,1,902.50007,298.75Z"/></svg>