<svg height="1000" viewBox="0 0 1000 1000" width="1000" xmlns="http://www.w3.org/2000/svg"><title>sc</title><g data-name="all icons" id="all_icons"><g data-name="Layer 68" id="Layer_68"><path d="M500,423.16h0a76.84,76.84,0,0,0,0,153.68h0a76.84,76.84,0,0,0,0-153.68ZM447.66,500a52.39,52.39,0,0,1,27.84-46.24v92.49A52.39,52.39,0,0,1,447.66,500ZM500,307.9h0a300.89,300.89,0,0,0-177.16,57.35A304.47,304.47,0,0,0,251,438.75q-8.2,11.86-15.28,24.5-6.67,11.93-12.28,24.5-2.7,6.06-5.15,12.25,2.44,6.2,5.15,12.25,5.6,12.56,12.28,24.5,7.07,12.63,15.28,24.5a304.49,304.49,0,0,0,71.88,73.5A300.89,300.89,0,0,0,500,692.1h0c128.07,0,237.44-79.66,281.75-192.1C737.44,387.56,628.07,307.9,500,307.9Zm-31.5,33.31v2.35a158.62,158.62,0,0,0-53.89,21.7H384.38A268.4,268.4,0,0,1,468.5,341.21ZM342.72,389.75h42a160.64,160.64,0,0,0-19.27,24.5H313.05A274.51,274.51,0,0,1,342.72,389.75Zm-52.43,49h62.36a158.24,158.24,0,0,0-7.94,24.5H272.39A270.87,270.87,0,0,1,290.3,438.75Zm-32,73.5q-3.07-6-5.86-12.25,2.78-6.21,5.86-12.25h82.63c-.31,4-.48,8.13-.48,12.25s.17,8.21.48,12.25Zm32,49a270.87,270.87,0,0,1-17.91-24.5h72.32a158.2,158.2,0,0,0,7.94,24.5Zm22.75,24.5h52.43a160.64,160.64,0,0,0,19.27,24.5h-42A274.51,274.51,0,0,1,313.05,585.75Zm155.45,73a268.4,268.4,0,0,1-84.12-24h30.23a158.62,158.62,0,0,0,53.88,21.7ZM500,628.07h0A128,128,0,0,1,372.52,512.25c-.38-4-.59-8.12-.59-12.25s.2-8.22.59-12.25a127.62,127.62,0,0,1,32.39-73.5A127.82,127.82,0,0,1,500,371.93h0a128.07,128.07,0,0,1,0,256.14Z"/></g></g></svg>