<svg height="1000" viewBox="0 0 1000 1000" width="1000" xmlns="http://www.w3.org/2000/svg"><title>sc</title><g data-name="all icons" id="all_icons"><g data-name="Layer 437" id="Layer_437"><path d="M500,390.227h0a109.773,109.773,0,1,0,0,219.545h0a109.773,109.773,0,1,0,0-219.545ZM425.227,500A74.847,74.847,0,0,1,465,433.936V566.063A74.849,74.849,0,0,1,425.227,500Zm77.107-274.431h0A429.847,429.847,0,0,0,249.241,307.5a434.975,434.975,0,0,0-102.681,105q-11.709,16.937-21.824,35-9.53,17.041-17.539,35-3.86,8.655-7.364,17.5,3.489,8.85,7.364,17.5,8,17.943,17.539,35,10.1,18.05,21.824,35a434.993,434.993,0,0,0,102.681,105,429.847,429.847,0,0,0,253.092,81.932h0c182.954,0,339.2-113.8,402.5-274.432C841.531,339.366,685.288,225.568,502.334,225.568Zm-46.667,47.585v3.352A226.614,226.614,0,0,0,378.688,307.5H335.5A383.445,383.445,0,0,1,455.667,273.153ZM275.986,342.5h60.047a229.5,229.5,0,0,0-27.53,35H233.6A392.231,392.231,0,0,1,275.986,342.5Zm-74.894,70h89.08a226.169,226.169,0,0,0-11.346,35H175.51A386.982,386.982,0,0,1,201.092,412.5Zm-45.75,105q-4.392-8.628-8.369-17.5,3.972-8.871,8.369-17.5H273.391c-.441,5.778-.679,11.612-.679,17.5s.238,11.723.679,17.5Zm45.75,70a386.7,386.7,0,0,1-25.582-35H278.826a226.1,226.1,0,0,0,11.346,35Zm32.5,35H308.5a229.475,229.475,0,0,0,27.531,35H275.986A392,392,0,0,1,233.6,622.5ZM455.666,726.846A383.422,383.422,0,0,1,335.5,692.5h43.191a226.59,226.59,0,0,0,76.978,31Zm45-43.892h0A182.8,182.8,0,0,1,318.551,517.5c-.548-5.76-.839-11.6-.839-17.5s.291-11.739.839-17.5a182.319,182.319,0,0,1,46.269-105,182.591,182.591,0,0,1,135.847-60.454h0c100.991,0,182.954,81.964,182.954,182.954S601.658,682.954,500.667,682.954Z"/></g></g></svg>