<svg xmlns="http://www.w3.org/2000/svg" viewBox="0 0 1000 1000"><title>ts</title><g id="all_icons" data-name="all icons"><g id="Layer_437" data-name="Layer 437"><path d="M0,0H1000V1000H0Z" style="fill:none"/><path d="M0,0H1000V1000H0Z" style="fill:none"/><path d="M264.3,264.3A330.444,330.444,0,0,0,175.32,426.343h86.031a244.616,244.616,0,0,1,61.872-103.12c97.522-97.521,256.032-97.521,353.554,0l-88.389,88.389h235.7v-235.7L735.7,264.3C605.477,134.072,394.523,134.072,264.3,264.3Zm147.314,324.09h-235.7v235.7L264.3,735.7c130.225,130.226,341.179,130.226,471.4,0A330.444,330.444,0,0,0,824.68,573.657H738.649a244.616,244.616,0,0,1-61.872,103.12c-97.522,97.521-256.032,97.521-353.554,0ZM515.166,324.537v187l154,91.52-31.68,53.24-188.32-111.76v-220Z"/></g></g></svg>