<svg height="1000" viewBox="0 0 1000 1000" width="1000" xmlns="http://www.w3.org/2000/svg"><title>ts</title><g data-name="all icons" id="all_icons"><g data-name="Layer 437" id="Layer_437"><path d="M335,335a231.32,231.32,0,0,0-62.28,113.43h60.22a171.22,171.22,0,0,1,43.31-72.18c68.27-68.27,179.22-68.27,247.49,0l-61.87,61.87h165v-165L665,335C573.83,243.85,426.17,243.85,335,335ZM438.13,561.87h-165v165L335,665c91.16,91.16,238.83,91.16,330,0a231.32,231.32,0,0,0,62.28-113.43H667.05a171.22,171.22,0,0,1-43.31,72.18c-68.27,68.27-179.22,68.27-247.49,0Zm74.12-178.54v124L614.33,568l-21,35.29L468.5,529.17V383.33Z"/></g></g></svg>