<svg height="1000" viewBox="0 0 1000 1000" width="1000" xmlns="http://www.w3.org/2000/svg"><title>vac</title><g data-name="all icons" id="all_icons"><g data-name="Layer 437" id="Layer_437"><path d="M666.1,223.91a109.74,109.74,0,0,0-94,166.28L461.41,500.84a150.22,150.22,0,0,0-86.1-27C292,473.81,224.17,541.67,224.17,625S292,776.09,375.31,776.09,526.45,708.23,526.45,625A150.23,150.23,0,0,0,499,538.23L609.55,427.67A109.73,109.73,0,1,0,666.1,223.91Zm-200,401a90.9,90.9,0,1,1-48.5-80.32L378,584.24c-.89-.06-1.79-.1-2.7-.1A40.81,40.81,0,1,0,416.12,625c0-1.24-.06-2.47-.17-3.68L455.26,582A89.94,89.94,0,0,1,466.12,625Z"/></g></g></svg>