<svg height="1000" viewBox="0 0 1000 1000" width="1000" xmlns="http://www.w3.org/2000/svg"><title>vac</title><g data-name="all icons" id="all_icons"><g data-name="Layer 437" id="Layer_437"><path d="M737.291,105.585a156.773,156.773,0,0,0-134.34,237.54L444.872,501.2a214.6,214.6,0,0,0-123-38.613c-118.968,0-215.912,96.944-215.912,215.911s96.944,215.913,215.912,215.913S537.787,797.47,537.787,678.5a214.615,214.615,0,0,0-39.232-123.888L656.5,396.672a156.754,156.754,0,1,0,80.794-291.087ZM451.605,678.5A129.851,129.851,0,1,1,382.316,563.76l-46.19,46.19a70.617,70.617,0,0,0-14.251-1.448,69.987,69.987,0,1,0,68.27,54.522l45.945-45.945A128.475,128.475,0,0,1,451.605,678.5Z"/><rect height="1000" style="fill:none" width="1000"/></g></g></svg>