<svg height="1000" viewBox="0 0 1000 1000" width="1000" xmlns="http://www.w3.org/2000/svg"><title>vac</title><g data-name="all icons" id="all_icons"><g data-name="Layer 437" id="Layer_437"><path d="M321.875,462.591c-118.968,0-215.912,96.944-215.912,215.911s96.944,215.912,215.912,215.912S537.787,797.47,537.787,678.5,440.842,462.591,321.875,462.591Zm0,345.642a130.087,130.087,0,1,1,91.629-38.1A128.809,128.809,0,0,1,321.875,808.233Zm70-129.731a70,70,0,1,1-70-70A69.906,69.906,0,0,1,391.875,678.5Z"/><rect height="692.951" transform="translate(473.93 -269.512) rotate(45)" width="75.727" x="524.431" y="90.853"/><circle cx="737.291" cy="262.332" r="156.746"/><rect height="1000" style="fill:none" width="1000"/></g></g></svg>