<svg data-name="all icons" height="24" id="all_icons" viewBox="0 0 24 24" width="24" xmlns="http://www.w3.org/2000/svg">
  <title>vcr</title>
  <g data-name="Layer 437" id="Layer_437">
    <g>
      <rect fill="none" height="24" width="24"/>
      <path d="M19.636,11.146a7.682,7.682,0,0,0-6.782-6.782V2.6H11.146V4.364a7.682,7.682,0,0,0-6.782,6.782H2.6v1.708H4.364a7.682,7.682,0,0,0,6.782,6.782V21.4h1.708V19.636a7.682,7.682,0,0,0,6.782-6.782H21.4V11.146ZM12,17.979A5.979,5.979,0,1,1,17.979,12,5.974,5.974,0,0,1,12,17.979Z" transform="translate(3.6000000000000014 3.6000000000000014) scale(0.7)"/>
    </g>
  </g>
</svg>