<svg data-name="all icons" height="24" id="all_icons" viewBox="0 0 24 24" width="24" xmlns="http://www.w3.org/2000/svg">
  <title>vel</title>
  <g data-name="Layer 437" id="Layer_437">
    <g>
      <rect fill="none" height="24" width="24"/>
      <path d="M12.938,9.188V4.031l5.156,5.156Zm.938-6.562h-7.5A1.873,1.873,0,0,0,4.509,4.5L4.5,19.5a1.873,1.873,0,0,0,1.866,1.875H17.625A1.881,1.881,0,0,0,19.5,19.5V8.25Zm3.044,16.014-2.186-2.186v1.913a.548.548,0,0,1-.547.547H7.628a.548.548,0,0,1-.547-.547V12.9a.548.548,0,0,1,.547-.547h6.558a.548.548,0,0,1,.547.547v1.913l2.186-2.186Z" transform="translate(3.6000000000000014 3.6000000000000014) scale(0.7)"/>
    </g>
  </g>
</svg>