<svg height="1000" viewBox="0 0 1000 1000" width="1000" xmlns="http://www.w3.org/2000/svg"><title>vel</title><g data-name="all icons" id="all_icons"><g data-name="Layer 437" id="Layer_437"><path d="M527.34,418V267.58L677.73,418Zm27.34-191.41H335.94a54.62,54.62,0,0,0-54.41,54.69l-.27,437.5a54.62,54.62,0,0,0,54.41,54.69h328.4a54.85,54.85,0,0,0,54.69-54.69V390.63Zm88.77,467.06L579.7,629.87v55.79a16,16,0,0,1-15.94,15.94H372.48a16,16,0,0,1-15.94-15.94V526.26a16,16,0,0,1,15.94-15.94H563.76a16,16,0,0,1,15.94,15.94V582l63.76-63.76Z"/></g></g></svg>