<svg height="1000" viewBox="0 0 1000 1000" width="1000" xmlns="http://www.w3.org/2000/svg"><defs><style>.a{fill:none;}</style></defs><title>vel</title><path d="M539.0625,382.8125V167.96875L753.90625,382.8125ZM578.125,109.375h-312.5c-42.9678,0-77.734,35.1572-77.734,78.125l-.391,625c0,42.9678,34.7662,78.125,77.734,78.125H734.375A78.35591,78.35591,0,0,0,812.5,812.5V343.75ZM704.93826,776.60724l-91.08367-91.08367v79.69821a22.83854,22.83854,0,0,1-22.77092,22.77092h-273.251a22.83854,22.83854,0,0,1-22.77092-22.77092V537.5126a22.83854,22.83854,0,0,1,22.77092-22.77092h273.251a22.83854,22.83854,0,0,1,22.77092,22.77092v79.69821l91.08367-91.08367Z"/></svg>