<svg height="1000" viewBox="0 0 1000 1000" width="1000" xmlns="http://www.w3.org/2000/svg"><title>vel</title><g data-name="all icons" id="all_icons"><g data-name="Layer 437" id="Layer_437"><path d="M539.063,382.813V167.969L753.906,382.813Zm39.062-273.438h-312.5c-42.968,0-77.734,35.157-77.734,78.125l-.391,625c0,42.968,34.766,78.125,77.734,78.125H734.375A78.356,78.356,0,0,0,812.5,812.5V343.75ZM704.938,776.607l-91.083-91.083v79.7a22.839,22.839,0,0,1-22.771,22.771H317.833a22.839,22.839,0,0,1-22.771-22.771V537.513a22.838,22.838,0,0,1,22.771-22.771H591.084a22.839,22.839,0,0,1,22.771,22.771v79.7l91.083-91.084Z"/></g></g></svg>