<svg height="1000" viewBox="0 0 1000 1000" width="1000" xmlns="http://www.w3.org/2000/svg"><title>veo</title><g data-name="capture - phase 1 copy 4" id="capture_-_phase_1_copy_4"><g data-name="right-tab copy 10" id="right-tab_copy_10"><g data-name="main menu copy 11" id="main_menu_copy_11"><path d="M718.16,277.84V714.16H281.84V277.84H718.16m0-62.33H281.84a62.51,62.51,0,0,0-62.33,62.33V714.16a62.51,62.51,0,0,0,62.33,62.33H718.16a62.51,62.51,0,0,0,62.33-62.33V277.84A62.51,62.51,0,0,0,718.16,215.51ZM500,375.24c-80.51,0-149.27,50.08-177.12,120.76C350.73,566.69,419.49,616.76,500,616.76S649.27,566.69,677.12,496C649.27,425.31,580.51,375.24,500,375.24Zm0,201.27A80.51,80.51,0,1,1,580.51,496,80.54,80.54,0,0,1,500,576.51Zm0-128.82A48.31,48.31,0,1,0,548.31,496,48.24,48.24,0,0,0,500,447.69Z"/></g></g></g></svg>