<svg height="1000" viewBox="0 0 1000 1000" width="1000" xmlns="http://www.w3.org/2000/svg"><defs><style>.a{fill:none;}</style></defs><title>veo</title><path d="M811.65159,188.34842V811.65159H188.34842V188.34842H811.65159m0-89.04331H188.34842A89.30509,89.30509,0,0,0,99.3051,188.34842V811.65159a89.30508,89.30508,0,0,0,89.04331,89.04331H811.65159a89.30507,89.30507,0,0,0,89.04331-89.04331V188.34842A89.30508,89.30508,0,0,0,811.65159,99.3051ZM500,327.47859c-115.01428,0-213.23647,71.53888-253.03141,172.52141C286.76353,600.98252,384.98572,672.52141,500,672.52141S713.23648,600.98252,753.03141,500C713.23648,399.01747,615.01428,327.47859,500,327.47859Zm0,287.53569A115.01428,115.01428,0,1,1,615.01428,500,115.05623,115.05623,0,0,1,500,615.01428Zm0-184.02284A69.00857,69.00857,0,1,0,569.00857,500,68.91614,68.91614,0,0,0,500,430.99143Z"/></svg>