<svg viewBox="0 0 24 24" xmlns="http://www.w3.org/2000/svg">
  <title>veo</title>
  <g data-name="capture - phase 1 copy 4" id="capture_-_phase_1_copy_4">
    <g data-name="right-tab copy 10" id="right-tab_copy_10">
      <g data-name="main menu copy 11" id="main_menu_copy_11">
        <g>
          <rect fill="none" height="12" width="12"/>
          <path d="M19.48,4.52V19.48H4.52V4.52H19.48m0-2.137H4.52A2.143,2.143,0,0,0,2.383,4.52V19.48A2.143,2.143,0,0,0,4.52,21.617H19.48a2.143,2.143,0,0,0,2.137-2.137V4.52A2.143,2.143,0,0,0,19.48,2.383ZM12,7.859A6.529,6.529,0,0,0,5.927,12a6.524,6.524,0,0,0,12.146,0A6.529,6.529,0,0,0,12,7.859Zm0,6.9A2.76,2.76,0,1,1,14.76,12,2.761,2.761,0,0,1,12,14.76Zm0-4.417A1.656,1.656,0,1,0,13.656,12,1.654,1.654,0,0,0,12,10.344Z"/>
        </g>
      </g>
    </g>
  </g>
</svg>