<svg height="1000" viewBox="0 0 1000 1000" width="1000" xmlns="http://www.w3.org/2000/svg"><title>veo</title><g data-name="capture - phase 1 copy 4" id="capture_-_phase_1_copy_4"><g data-name="right-tab copy 10" id="right-tab_copy_10"><g data-name="main menu copy 11" id="main_menu_copy_11"><path d="M811.652,188.348v623.3h-623.3v-623.3h623.3m0-89.043h-623.3a89.306,89.306,0,0,0-89.043,89.043v623.3A89.306,89.306,0,0,0,188.348,900.7h623.3A89.306,89.306,0,0,0,900.7,811.652v-623.3A89.306,89.306,0,0,0,811.652,99.305ZM500,327.479c-115.014,0-213.236,71.538-253.031,172.521C286.764,600.983,384.986,672.521,500,672.521S713.236,600.983,753.031,500C713.236,399.017,615.014,327.479,500,327.479Zm0,287.535A115.014,115.014,0,1,1,615.014,500,115.056,115.056,0,0,1,500,615.014Zm0-184.023A69.009,69.009,0,1,0,569.009,500,68.917,68.917,0,0,0,500,430.991Z"/></g></g></g></svg>