<svg height="1000" viewBox="0 0 1000 1000" width="1000" xmlns="http://www.w3.org/2000/svg"><title>vf</title><g data-name="all icons" id="all_icons"><g data-name="Layer 437" id="Layer_437"><path d="M283.58,588.75H221.75V712.42a62,62,0,0,0,61.83,61.83H407.25V712.42H283.58Zm0-309.17H407.25V217.75H283.58a62,62,0,0,0-61.83,61.83V403.25h61.83Zm432.83-61.83H592.75v61.83H716.42V403.25h61.83V279.58A62,62,0,0,0,716.42,217.75Zm0,494.67H592.75v61.83H716.42a62,62,0,0,0,61.83-61.83V588.75H716.42ZM500,331.94c-90.4,0-164.06,73.66-164.06,164.06S409.6,660.06,500,660.06,664.06,586.4,664.06,496,590.4,331.94,500,331.94Zm0,295.31c-72.35,0-131.25-58.9-131.25-131.25S427.65,364.75,500,364.75,631.25,423.65,631.25,496,572.35,627.25,500,627.25ZM549.22,496A49.22,49.22,0,1,1,500,446.78,49.15,49.15,0,0,1,549.22,496Z"/></g></g></svg>