<svg height="1000" viewBox="0 0 1000 1000" width="1000" xmlns="http://www.w3.org/2000/svg"><defs><style>.a{fill:none;}</style></defs><title>vf</title><path d="M190.8333,632.5H102.5V809.1667A88.593,88.593,0,0,0,190.8333,897.5H367.5V809.1667H190.8333Zm0-441.66671H367.5V102.5H190.8333A88.593,88.593,0,0,0,102.5,190.8333V367.5H190.8333ZM809.1667,102.5H632.5V190.8333H809.1667V367.5H897.5V190.8333A88.593,88.593,0,0,0,809.1667,102.5Zm0,706.66673H632.5V897.5H809.1667A88.593,88.593,0,0,0,897.5,809.1667V632.5H809.1667ZM500,265.625c-129.14063,0-234.375,105.23437-234.375,234.375S370.85937,734.375,500,734.375,734.375,629.14063,734.375,500,629.14063,265.625,500,265.625ZM500,687.5c-103.35937,0-187.5-84.14063-187.5-187.5S396.64063,312.5,500,312.5,687.5,396.64063,687.5,500,603.35937,687.5,500,687.5ZM570.3125,500A70.3125,70.3125,0,1,1,500,429.6875,70.21832,70.21832,0,0,1,570.3125,500Z"/></svg>