<svg data-name="all icons" id="all_icons" viewBox="0 0 24 24" xmlns="http://www.w3.org/2000/svg">
  <title>vf</title>
  <g data-name="Layer 437" id="Layer_437">
    <g>
      <rect fill="none" height="12" width="12"/>
      <path d="M4.58,15.18H2.46v4.24a2.126,2.126,0,0,0,2.12,2.12H8.82V19.42H4.58Zm0-10.6H8.82V2.46H4.58A2.126,2.126,0,0,0,2.46,4.58V8.82H4.58ZM19.42,2.46H15.18V4.58h4.24V8.82h2.12V4.58A2.126,2.126,0,0,0,19.42,2.46Zm0,16.96H15.18v2.12h4.24a2.126,2.126,0,0,0,2.12-2.12V15.18H19.42Z"/>
      <path d="M12,6.375A5.625,5.625,0,1,0,17.625,12,5.634,5.634,0,0,0,12,6.375ZM12,16.5A4.5,4.5,0,1,1,16.5,12,4.506,4.506,0,0,1,12,16.5ZM13.688,12A1.688,1.688,0,1,1,12,10.313,1.685,1.685,0,0,1,13.688,12Z"/>
    </g>
  </g>
</svg>