<svg height="1000" viewBox="0 0 1000 1000" width="1000" xmlns="http://www.w3.org/2000/svg"><title>vf</title><g data-name="all icons" id="all_icons"><g data-name="Layer 437" id="Layer_437"><path d="M190.833,809.167H367.5V897.5H190.833A88.593,88.593,0,0,1,102.5,809.167V632.5h88.333Zm0-618.334H367.5V102.5H190.833A88.593,88.593,0,0,0,102.5,190.833V367.5h88.333ZM809.167,102.5H632.5v88.333H809.167V367.5H897.5V190.833A88.593,88.593,0,0,0,809.167,102.5Zm0,706.667H632.5V897.5H809.167A88.593,88.593,0,0,0,897.5,809.167V632.5H809.167ZM755,500c0,140.505-114.495,255-255,255S245,640.505,245,500,359.5,245,500,245,755,359.5,755,500Zm-82.5,0c0-95.091-77.409-172.5-172.5-172.5S327.5,404.909,327.5,500,404.909,672.5,500,672.5,672.5,595.091,672.5,500ZM500,407.5A92.5,92.5,0,1,0,592.5,500,92.377,92.377,0,0,0,500,407.5Z"/></g></g></svg>