<svg height="1000" viewBox="0 0 1000 1000" width="1000" xmlns="http://www.w3.org/2000/svg"><title>vlp</title><g data-name="all icons" id="all_icons"><g data-name="Layer 437" id="Layer_437"><path d="M288.747,585.418a45,45,0,1,1-45-45A45.132,45.132,0,0,1,288.747,585.418Zm-45,125.835a45,45,0,1,0,45,45A45.132,45.132,0,0,0,243.747,711.253Zm0-341.671a45,45,0,1,0,45,45A45.132,45.132,0,0,0,243.747,369.582Zm-128.126,17.5a27.5,27.5,0,1,0,27.5,27.5A27.233,27.233,0,0,0,115.621,387.082ZM243.747,198.747a45,45,0,1,0,45,45A45.132,45.132,0,0,0,243.747,198.747ZM884.379,442.082a27.5,27.5,0,1,0-27.5-27.5A27.233,27.233,0,0,0,884.379,442.082ZM585.418,288.747a45,45,0,1,0-45-45A45.132,45.132,0,0,0,585.418,288.747Zm0-145.626a27.5,27.5,0,1,0-27.5-27.5A27.233,27.233,0,0,0,585.418,143.121Zm-469.8,414.8a27.5,27.5,0,1,0,27.5,27.5A27.233,27.233,0,0,0,115.621,557.918ZM414.582,856.879a27.5,27.5,0,1,0,27.5,27.5A27.233,27.233,0,0,0,414.582,856.879Zm0-713.758a27.5,27.5,0,1,0-27.5-27.5A27.233,27.233,0,0,0,414.582,143.121Zm0,145.626a45,45,0,1,0-45-45A45.132,45.132,0,0,0,414.582,288.747Zm-1.725,229.171a67.5,67.5,0,1,0,67.5,67.5A67.41,67.41,0,0,0,412.857,517.918Zm343.4,22.5a45,45,0,1,0,45,45A45.132,45.132,0,0,0,756.253,540.418Zm0,170.835a45,45,0,1,0,45,45A45.132,45.132,0,0,0,756.253,711.253Zm0-341.671a45,45,0,1,0,45,45A45.132,45.132,0,0,0,756.253,369.582Zm0-170.835a45,45,0,1,0,45,45A45.132,45.132,0,0,0,756.253,198.747ZM884.379,557.918a27.5,27.5,0,1,0,27.5,27.5A27.233,27.233,0,0,0,884.379,557.918ZM585.418,711.253a45,45,0,1,0,45,45A45.132,45.132,0,0,0,585.418,711.253Zm0,145.626a27.5,27.5,0,1,0,27.5,27.5A27.233,27.233,0,0,0,585.418,856.879Zm-170.836-509.8a67.5,67.5,0,1,0,67.5,67.5A67.41,67.41,0,0,0,414.582,347.082Zm0,364.171a45,45,0,1,0,45,45A45.132,45.132,0,0,0,414.582,711.253ZM587.143,517.918a67.5,67.5,0,1,0,67.5,67.5A67.41,67.41,0,0,0,587.143,517.918Zm-1.725-170.836a67.5,67.5,0,1,0,67.5,67.5A67.41,67.41,0,0,0,585.418,347.082Z"/></g></g></svg>