<svg height="1000" viewBox="0 0 1000 1000" width="1000" xmlns="http://www.w3.org/2000/svg"><defs><style>.a{fill:none;}</style></defs><title>vlp</title><path d="M243.74738,542.70877a42.70877,42.70877,0,1,0,42.70877,42.70877A42.83432,42.83432,0,0,0,243.74738,542.70877Zm0,170.83508a42.70877,42.70877,0,1,0,42.70877,42.70877A42.83435,42.83435,0,0,0,243.74738,713.54385Zm0-341.67016a42.70877,42.70877,0,1,0,42.70877,42.70877A42.83432,42.83432,0,0,0,243.74738,371.87369ZM115.62107,393.22808a21.35438,21.35438,0,1,0,21.35438,21.35438A21.147,21.147,0,0,0,115.62107,393.22808ZM243.74738,201.03861a42.70877,42.70877,0,1,0,42.70877,42.70877A42.83432,42.83432,0,0,0,243.74738,201.03861ZM884.37893,435.93685a21.35438,21.35438,0,1,0-21.35438-21.35438A21.14694,21.14694,0,0,0,884.37893,435.93685ZM585.41754,286.45615a42.70877,42.70877,0,1,0-42.70877-42.70877A42.83432,42.83432,0,0,0,585.41754,286.45615Zm0-149.48069a21.35438,21.35438,0,1,0-21.35438-21.35438A21.147,21.147,0,0,0,585.41754,136.97546ZM115.62107,564.06315a21.35438,21.35438,0,1,0,21.35438,21.35438A21.147,21.147,0,0,0,115.62107,564.06315ZM414.58246,863.02454a21.35438,21.35438,0,1,0,21.35438,21.35438A21.14694,21.14694,0,0,0,414.58246,863.02454Zm0-726.04909a21.35438,21.35438,0,1,0-21.35438-21.35438A21.147,21.147,0,0,0,414.58246,136.97546Zm0,149.48069a42.70877,42.70877,0,1,0-42.70877-42.70877A42.83432,42.83432,0,0,0,414.58246,286.45615Zm0,234.89823a64.06315,64.06315,0,1,0,64.06315,64.06315A63.97735,63.97735,0,0,0,414.58246,521.35438Zm341.67016,21.35438a42.70877,42.70877,0,1,0,42.70877,42.70877A42.83435,42.83435,0,0,0,756.25262,542.70877Zm0,170.83508a42.70877,42.70877,0,1,0,42.70877,42.70877A42.83437,42.83437,0,0,0,756.25262,713.54385Zm0-341.67016a42.70877,42.70877,0,1,0,42.70877,42.70877A42.83435,42.83435,0,0,0,756.25262,371.87369Zm0-170.83508a42.70877,42.70877,0,1,0,42.70877,42.70877A42.83435,42.83435,0,0,0,756.25262,201.03861ZM884.37893,564.06315a21.35438,21.35438,0,1,0,21.35438,21.35438A21.14694,21.14694,0,0,0,884.37893,564.06315ZM585.41754,713.54385a42.70877,42.70877,0,1,0,42.70877,42.70877A42.83435,42.83435,0,0,0,585.41754,713.54385Zm0,149.48069a21.35438,21.35438,0,1,0,21.35438,21.35438A21.14694,21.14694,0,0,0,585.41754,863.02454ZM414.58246,350.51931a64.06315,64.06315,0,1,0,64.06315,64.06315A63.97735,63.97735,0,0,0,414.58246,350.51931Zm0,363.02454a42.70877,42.70877,0,1,0,42.70877,42.70877A42.83435,42.83435,0,0,0,414.58246,713.54385ZM585.41754,521.35438a64.06315,64.06315,0,1,0,64.06315,64.06315A63.97735,63.97735,0,0,0,585.41754,521.35438Zm0-170.83508a64.06315,64.06315,0,1,0,64.06315,64.06315A63.97735,63.97735,0,0,0,585.41754,350.51931Z"/></svg>