<svg data-name="all icons" id="all_icons" viewBox="0 0 24 24" xmlns="http://www.w3.org/2000/svg">
  <title>vlp</title>
  <g data-name="Layer 437" id="Layer_437">
    <g>
      <rect fill="none" height="12" width="12"/>
      <path d="M5.85,13.025A1.025,1.025,0,1,0,6.875,14.05,1.028,1.028,0,0,0,5.85,13.025Zm0,4.1A1.025,1.025,0,1,0,6.875,18.15,1.028,1.028,0,0,0,5.85,17.125Zm0-8.2A1.025,1.025,0,1,0,6.875,9.95,1.028,1.028,0,0,0,5.85,8.925Zm-3.075.513a.513.513,0,1,0,.513.513A.508.508,0,0,0,2.775,9.437ZM5.85,4.825A1.025,1.025,0,1,0,6.875,5.85,1.028,1.028,0,0,0,5.85,4.825Zm15.375,5.638a.513.513,0,1,0-.513-.513A.508.508,0,0,0,21.225,10.462ZM14.05,6.875A1.025,1.025,0,1,0,13.025,5.85,1.028,1.028,0,0,0,14.05,6.875Zm0-3.588a.513.513,0,1,0-.513-.513A.508.508,0,0,0,14.05,3.287ZM2.775,13.538a.513.513,0,1,0,.513.513A.508.508,0,0,0,2.775,13.538ZM9.95,20.713a.513.513,0,1,0,.513.513A.508.508,0,0,0,9.95,20.713Zm0-17.425a.513.513,0,1,0-.513-.513A.508.508,0,0,0,9.95,3.287Zm0,3.588A1.025,1.025,0,1,0,8.925,5.85,1.028,1.028,0,0,0,9.95,6.875Zm0,5.638a1.538,1.538,0,1,0,1.538,1.538A1.535,1.535,0,0,0,9.95,12.513Zm8.2.513a1.025,1.025,0,1,0,1.025,1.025A1.028,1.028,0,0,0,18.15,13.025Zm0,4.1a1.025,1.025,0,1,0,1.025,1.025A1.028,1.028,0,0,0,18.15,17.125Zm0-8.2A1.025,1.025,0,1,0,19.175,9.95,1.028,1.028,0,0,0,18.15,8.925Zm0-4.1A1.025,1.025,0,1,0,19.175,5.85,1.028,1.028,0,0,0,18.15,4.825Zm3.075,8.713a.513.513,0,1,0,.513.513A.508.508,0,0,0,21.225,13.538ZM14.05,17.125a1.025,1.025,0,1,0,1.025,1.025A1.028,1.028,0,0,0,14.05,17.125Zm0,3.588a.513.513,0,1,0,.513.513A.508.508,0,0,0,14.05,20.713Zm-4.1-12.3A1.538,1.538,0,1,0,11.487,9.95,1.535,1.535,0,0,0,9.95,8.412Zm0,8.713a1.025,1.025,0,1,0,1.025,1.025A1.028,1.028,0,0,0,9.95,17.125Zm4.1-4.613a1.538,1.538,0,1,0,1.538,1.538A1.535,1.535,0,0,0,14.05,12.513Zm0-4.1A1.538,1.538,0,1,0,15.588,9.95,1.535,1.535,0,0,0,14.05,8.412Z"/>
    </g>
  </g>
</svg>