<svg data-name="all icons" height="24" id="all_icons" viewBox="0 0 24 24" width="24" xmlns="http://www.w3.org/2000/svg" xmlns:xlink="http://www.w3.org/1999/xlink">
  <defs>
    <clipPath id="clip-path">
      <rect fill="none" height="24" width="24"/>
    </clipPath>
  </defs>
  <title>vpl</title>
  <g data-name="Layer 437" id="Layer_437">
    <g>
      <path d="M21.548,8.528a1.741,1.741,0,0,1-1.736,1.736,1.475,1.475,0,0,1-.443-.061l-3.09,3.082a1.533,1.533,0,0,1,.061.451,1.736,1.736,0,0,1-3.472,0,1.533,1.533,0,0,1,.061-.451l-2.213-2.213a1.707,1.707,0,0,1-.9,0l-3.95,3.958a1.475,1.475,0,0,1,.061.443,1.736,1.736,0,1,1-1.736-1.736,1.475,1.475,0,0,1,.443.061l3.958-3.95A1.533,1.533,0,0,1,8.528,9.4,1.736,1.736,0,1,1,12,9.4a1.533,1.533,0,0,1-.061.451l2.213,2.213a1.707,1.707,0,0,1,.9,0l3.082-3.09a1.475,1.475,0,0,1-.061-.443,1.736,1.736,0,0,1,3.472,0Z" transform="translate(3.6000000000000014 3.6000000000000014) scale(0.7)"/>
    </g>
  </g>
</svg>