<svg height="1000" viewBox="0 0 1000 1000" width="1000" xmlns="http://www.w3.org/2000/svg"><title>vpl</title><g data-name="all icons" id="all_icons"><g data-name="Layer 437" id="Layer_437"><path d="M778.49,398.73a50.78,50.78,0,0,1-50.64,50.64,43,43,0,0,1-12.91-1.77l-90.13,89.88a44.72,44.72,0,0,1,1.77,13.17,50.64,50.64,0,0,1-101.27,0,44.72,44.72,0,0,1,1.77-13.17l-64.56-64.56a49.79,49.79,0,0,1-26.33,0L321,588.36a43,43,0,0,1,1.77,12.91,50.64,50.64,0,1,1-50.64-50.64,43,43,0,0,1,12.91,1.77L400.5,437.21A44.72,44.72,0,0,1,398.73,424,50.64,50.64,0,0,1,500,424a44.72,44.72,0,0,1-1.77,13.17l64.56,64.56a49.79,49.79,0,0,1,26.33,0L679,411.64a43,43,0,0,1-1.77-12.91,50.64,50.64,0,1,1,101.27,0Z"/></g></g></svg>