<svg height="1000" viewBox="0 0 1000 1000" width="1000" xmlns="http://www.w3.org/2000/svg"><title>vpl</title><g data-name="all icons" id="all_icons"><g data-name="Layer 437" id="Layer_437"><rect height="1000" style="fill:none" width="1000"/><path d="M912.287,355.32a86.819,86.819,0,0,1-116.852,81.41L689.851,542.017A86.794,86.794,0,1,1,527.168,542l-69.76-69.76a87.164,87.164,0,0,1-59.469,0L255.926,614.567a86.728,86.728,0,1,1-51.333-51.333l141.952-141.64a86.8,86.8,0,1,1,162.232.019L578.164,491a87.082,87.082,0,0,1,60.657-.01L744.109,385.405A86.778,86.778,0,1,1,912.287,355.32Z"/></g></g></svg>