<svg height="1000" viewBox="0 0 1000 1000" width="1000" xmlns="http://www.w3.org/2000/svg"><defs><style>.a{fill:none;}</style></defs><title>vpl</title><path d="M897.84681,355.32843A72.54843,72.54843,0,0,1,825.511,427.66422a61.47251,61.47251,0,0,1-18.44563-2.53174L678.30772,553.5285a63.88941,63.88941,0,0,1,2.53174,18.80729,72.33578,72.33578,0,0,1-144.67157,0,63.88964,63.88964,0,0,1,2.53174-18.80732L446.4715,461.30033a71.12187,71.12187,0,0,1-37.61461,0L244.293,626.22593a61.47142,61.47142,0,0,1,2.53176,18.44563A72.33578,72.33578,0,1,1,174.489,572.33578a61.47253,61.47253,0,0,1,18.44562,2.53174L357.86017,410.30361a63.88925,63.88925,0,0,1-2.53174-18.80729,72.33578,72.33578,0,1,1,144.67157,0,63.88964,63.88964,0,0,1-2.53174,18.80732l92.22813,92.22813a71.12187,71.12187,0,0,1,37.61461,0L755.707,373.77407a61.47251,61.47251,0,0,1-2.53174-18.44563,72.33578,72.33578,0,0,1,144.67157,0Z"/></svg>