<svg height="1000" viewBox="0 0 1000 1000" width="1000" xmlns="http://www.w3.org/2000/svg"><title>vsp</title><g data-name="all icons" id="all_icons"><g data-name="Layer 437" id="Layer_437"><path d="M670.421,329.579A240.131,240.131,0,0,0,500,258.839V500L329.579,670.421c94.053,94.052,246.789,94.052,341.243,0C764.875,576.368,764.875,423.632,670.421,329.579ZM500,98.065C278.132,98.065,98.065,278.132,98.065,500S278.132,901.935,500,901.935,901.935,721.868,901.935,500,721.868,98.065,500,98.065Zm0,723.483c-177.655,0-321.548-143.893-321.548-321.548S322.345,178.452,500,178.452,821.548,322.345,821.548,500,677.655,821.548,500,821.548Z"/></g></g></svg>