<svg height="1000" viewBox="0 0 1000 1000" width="1000" xmlns="http://www.w3.org/2000/svg"><title>vsp</title><g data-name="all icons" id="all_icons"><g data-name="Layer 437" id="Layer_437"><path d="M619.29,376.71A168.09,168.09,0,0,0,500,327.19V496L380.71,615.29c65.84,65.84,172.75,65.84,238.87,0A168.54,168.54,0,0,0,619.29,376.71ZM500,214.65c-155.31,0-281.35,126-281.35,281.35S344.69,777.35,500,777.35,781.35,651.31,781.35,496,655.31,214.65,500,214.65Zm0,506.44c-124.36,0-225.08-100.72-225.08-225.08S375.64,270.92,500,270.92,725.08,371.64,725.08,496,624.36,721.08,500,721.08Z"/></g></g></svg>