<svg height="1000" viewBox="0 0 1000 1000" width="1000" xmlns="http://www.w3.org/2000/svg"><defs><style>.a{fill:none;}</style></defs><title>vsp</title><path d="M670.42054,329.57946A240.128,240.128,0,0,0,500,258.83884V500L329.57946,670.42054c94.05286,94.05286,246.78822,94.05286,341.243,0C764.87534,576.36768,764.87534,423.63232,670.42054,329.57946ZM500,98.06474C278.13174,98.06474,98.06474,278.13174,98.06474,500S278.13174,901.93526,500,901.93526,901.93526,721.86828,901.93526,500,721.86828,98.06474,500,98.06474Zm0,723.48347c-177.65539,0-321.54821-143.89282-321.54821-321.54821S322.34461,178.45179,500,178.45179,821.54821,322.34461,821.54821,500,677.65539,821.54821,500,821.54821Z"/></svg>