<svg height="1000" viewBox="0 0 1000 1000" width="1000" xmlns="http://www.w3.org/2000/svg"><defs><style>.a{fill:none;}</style></defs><title>vwm</title><path d="M578.125,109.375h-312.5A78.35591,78.35591,0,0,0,187.5,187.5v625a78.35591,78.35591,0,0,0,78.125,78.125h468.75A78.35591,78.35591,0,0,0,812.5,812.5V343.75Zm156.25,710.94513H265.625A8.14514,8.14514,0,0,1,257.80487,812.5v-625a8.03578,8.03578,0,0,1,7.82013-7.82013H539.0625V382.8125H742.19513V812.5A8.14514,8.14514,0,0,1,734.375,820.32013ZM434.4635,619.62891l24.29962-128.42178H495.842l-40.05432,180.4924H418.36548L388.95416,550.92621,359.581,671.69952H322.15881l-40.05432-180.4924h37.07886l24.41406,128.15475,29.75464-128.15475H404.8233Zm130.043-128.42178,46.38672,130.90134,46.11969-130.90134h48.86627v180.4924H668.53333V622.33734l3.7384-85.125L623.558,671.69952H597.99957L549.40033,537.32681l3.7384,85.01053v49.36218H515.90729V491.20712Z"/></svg>