<svg height="1000" viewBox="0 0 1000 1000" width="1000" xmlns="http://www.w3.org/2000/svg"><title>vwm</title><g data-name="all icons" id="all_icons"><g data-name="Layer 437" id="Layer_437"><path d="M554.69,226.56H335.94a54.85,54.85,0,0,0-54.69,54.69v437.5a54.85,54.85,0,0,0,54.69,54.69H664.06a54.85,54.85,0,0,0,54.69-54.69V390.63ZM664.06,724.22H335.94a5.7,5.7,0,0,1-5.47-5.47V281.25a5.63,5.63,0,0,1,5.47-5.47H527.34V418H669.54V718.75A5.7,5.7,0,0,1,664.06,724.22ZM454.12,583.74l17-89.9h26l-28,126.34h-26.2l-20.59-84.54-20.56,84.54h-26.2l-28-126.34h26l17.09,89.71,20.83-89.71h22Zm91-89.9,32.47,91.63,32.28-91.63h34.21V620.19H618V585.64L620.59,526l-34.1,94.14H568.6l-34-94.06,2.62,59.51v34.55H511.14V493.84Z"/></g></g></svg>