<svg data-name="all icons" id="all_icons" viewBox="0 0 24 24" xmlns="http://www.w3.org/2000/svg">
  <title>vwm</title>
  <g data-name="Layer 437" id="Layer_437">
    <g>
      <rect fill="none" height="12" width="12"/>
      <path d="M13.875,2.625h-7.5A1.881,1.881,0,0,0,4.5,4.5v15a1.881,1.881,0,0,0,1.875,1.875h11.25A1.881,1.881,0,0,0,19.5,19.5V8.25Zm3.75,17.063H6.375a.2.2,0,0,1-.188-.188V4.5a.193.193,0,0,1,.188-.188h6.563V9.188h4.875V19.5A.2.2,0,0,1,17.625,19.688Zm-7.2-4.817.583-3.082h.89l-.961,4.332h-.9l-.706-2.9-.7,2.9h-.9l-.961-4.332h.89l.586,3.076.714-3.076h.755Zm3.121-3.082,1.113,3.142,1.107-3.142h1.173v4.332h-.9V14.936l.09-2.043-1.169,3.228h-.613L13.186,12.9l.09,2.04v1.185h-.894V11.789Z"/>
    </g>
  </g>
</svg>