<svg height="1000" viewBox="0 0 1000 1000" width="1000" xmlns="http://www.w3.org/2000/svg"><title>vwm</title><g data-name="all icons" id="all_icons"><g data-name="Layer 437" id="Layer_437"><path d="M578.125,109.375h-312.5A78.356,78.356,0,0,0,187.5,187.5v625a78.356,78.356,0,0,0,78.125,78.125h468.75A78.356,78.356,0,0,0,812.5,812.5V343.75ZM734.375,820.32H265.625a8.145,8.145,0,0,1-7.82-7.82v-625a8.036,8.036,0,0,1,7.82-7.82H539.063V382.813H742.2V812.5A8.145,8.145,0,0,1,734.375,820.32ZM434.464,619.629l24.3-128.422h37.079L455.788,671.7H418.365L388.954,550.926,359.581,671.7H322.159L282.1,491.207h37.079L343.6,619.362l29.755-128.155h31.471ZM564.507,491.207l46.386,130.9,46.12-130.9h48.866V671.7H668.533V622.337l3.739-85.125L623.558,671.7H598L549.4,537.327l3.739,85.01V671.7H515.907V491.207Z"/></g></g></svg>